<svg width="294" height="80" viewBox="0 0 294 80" fill="none" xmlns="http://www.w3.org/2000/svg">
<g style="mix-blend-mode:luminosity">
<path d="M132.775 18.9159H146.772V26.8145C151.358 19.7159 156.636 18.9159 164.361 18.9159V32.8744H160.843C151.585 32.8744 147.154 37.2631 147.154 45.9567V60.7939H132.775V18.9159Z" fill="white"/>
<path d="M211.062 60.7939H196.687V56.8016C193.548 60.4714 189.269 62.0664 183.994 62.0664C173.977 62.0664 168.313 56.0828 168.313 45.0779V18.9159H182.69V41.8117C182.69 46.9929 185.213 50.0229 189.494 50.0229C193.774 50.0229 196.684 47.0693 196.684 42.048V18.9159H211.06V60.7939H211.062Z" fill="white"/>
<path d="M214.576 47.8642H228.04C228.653 50.8941 230.718 52.1691 235.685 52.1691C239.74 52.1691 242.111 51.2141 242.111 49.4591C242.111 48.1004 240.963 47.2218 237.678 46.5055L226.818 44.0317C219.552 42.3605 215.88 38.1318 215.88 31.3483C215.88 22.4109 222.379 17.786 234.999 17.786C247.617 17.786 253.811 22.2928 254.886 31.9489H241.505C241.278 29.3988 238.673 27.8383 234.392 27.8383C230.952 27.8383 228.739 28.9533 228.739 30.632C228.739 32.0669 230.188 33.182 233.1 33.9056L244.493 36.6993C251.986 38.5306 255.585 42.3629 255.585 48.5828C255.585 57.2001 248.165 62.3051 235.553 62.3051C222.941 62.3051 214.598 56.8014 214.598 47.8642H214.576Z" fill="white"/>
<path d="M293.869 31.9416V18.9159H258.383V31.949H268.972V60.7939H283.275V31.9416H293.869Z" fill="white"/>
<path d="M128.772 31.9416V18.9159H93.2896V31.949H103.879V60.7939H118.183V31.9416H128.772Z" fill="white"/>
<path d="M0.210083 11.5562L35.5025 0V80C10.2932 69.3324 0.210083 48.888 0.210083 37.3343V11.5562Z" fill="#0500FF"/>
<path d="M70.7977 11.5562L35.5054 0V80C60.7146 69.3324 70.7977 48.888 70.7977 37.3343V11.5562Z" fill="url(#paint0_linear_399_1168)"/>
<path d="M70.7977 11.5562L35.5054 0V80C60.7146 69.3324 70.7977 48.888 70.7977 37.3343V11.5562Z" fill="url(#paint1_linear_399_1168)"/>
</g>
<defs>
<linearGradient id="paint0_linear_399_1168" x1="-12.1907" y1="90.0548" x2="-8.40194" y2="-23.1263" gradientUnits="userSpaceOnUse">
<stop offset="0.26" stop-color="#48FF91"/>
<stop offset="0.66" stop-color="#0094FF"/>
<stop offset="0.8" stop-color="#0038FF"/>
<stop offset="0.89" stop-color="#0500FF"/>
</linearGradient>
<linearGradient id="paint1_linear_399_1168" x1="60.764" y1="-4.62366" x2="33.7451" y2="79.77" gradientUnits="userSpaceOnUse">
<stop offset="0.02" stop-color="#0000FF"/>
<stop offset="0.08" stop-color="#0094FF"/>
<stop offset="0.16" stop-color="#48FF91"/>
<stop offset="0.42" stop-color="#0094FF"/>
<stop offset="0.68" stop-color="#0038FF"/>
<stop offset="0.9" stop-color="#0500FF"/>
</linearGradient>
</defs>
</svg>
