<svg width="239" height="80" viewBox="0 0 239 80" fill="none" xmlns="http://www.w3.org/2000/svg">
<path d="M204.503 74.9625V79.9987H238.917V57.2842H233.903V74.9625H204.503ZM204.503 0V5.03653H233.903V22.7157H238.917V0H204.503ZM186.755 38.9632V27.2599H194.622C198.457 27.2599 199.834 28.5435 199.834 32.0502V34.1239C199.834 37.7286 198.506 38.9632 194.622 38.9632H186.755ZM199.242 41.0368C202.831 40.0986 205.338 36.7401 205.338 32.741C205.338 30.2227 204.355 27.9507 202.487 26.1232C200.127 23.8512 196.98 22.7157 192.9 22.7157H181.839V57.2831H186.755V43.5061H194.13C197.915 43.5061 199.44 45.0861 199.44 49.0374V57.2842H204.454V49.8274C204.454 44.3953 203.176 42.3217 199.242 41.7289V41.0368ZM157.848 42.1722H172.99V37.6294H157.848V27.2587H174.465V22.7157H152.832V57.2831H175.202V52.7401H157.848V42.1722ZM141.377 43.9997V46.3697C141.377 51.3573 139.558 52.9875 134.986 52.9875H133.905C129.332 52.9875 127.12 51.5055 127.12 44.6415V35.3573C127.12 28.4443 129.431 27.0113 134.002 27.0113H134.985C139.459 27.0113 140.885 28.6905 140.933 33.3326H146.342C145.85 26.5177 141.327 22.2222 134.542 22.2222C131.249 22.2222 128.495 23.2596 126.431 25.2341C123.333 28.1479 121.613 33.0864 121.613 39.9994C121.613 46.6662 123.088 51.6047 126.136 54.6656C128.201 56.6902 131.052 57.7766 133.855 57.7766C136.804 57.7766 139.509 56.591 140.885 54.0238H141.572V57.2831H146.095V39.4568H132.772V43.9997H141.377ZM98.0159 27.2587H103.375C108.44 27.2587 111.193 28.5423 111.193 35.4565V44.5423C111.193 51.4553 108.44 52.7401 103.375 52.7401H98.0159V27.2587ZM103.817 57.2842C113.208 57.2842 116.697 50.1239 116.697 40.0006C116.697 29.7291 112.961 22.7169 103.718 22.7169H93.0983V57.2842H103.817ZM69.3538 42.1722H84.4965V37.6294H69.3538V27.2587H85.9706V22.7157H64.338V57.2831H86.7086V52.7401H69.3538V42.1722ZM40.3473 22.7157H35.333V57.2831H57.9483V52.7401H40.3473V22.7157ZM0.868652 57.2842V80H35.283V74.9625H5.8829V57.2842H0.868652ZM0.868652 0V22.7157H5.8829V5.03653H35.283V0H0.868652Z" fill="white"/>
</svg>
