<svg width="434" height="82" viewBox="0 0 434 82" fill="none" xmlns="http://www.w3.org/2000/svg">
<g style="mix-blend-mode:luminosity">
<path d="M382.777 41.2276C380.529 39.7221 378.057 38.6543 375.705 37.3238C374.183 36.4486 372.575 35.6958 371.244 34.593C368.996 32.7199 369.463 29.0613 371.815 27.4683C375.186 25.1926 380.754 26.4705 381.359 31.1094C381.359 31.2144 381.463 31.2845 381.567 31.2845H386.65C386.788 31.2845 386.875 31.1794 386.858 31.0569C386.598 27.8534 385.371 25.1926 383.123 23.4945C380.979 21.8665 378.541 20.9912 375.93 20.9912C362.495 20.9912 361.267 35.3632 368.512 39.8972C369.342 40.4223 376.431 44.0284 378.938 45.6039C381.446 47.1794 382.241 50.0328 381.152 52.3085C380.166 54.3742 377.59 55.8096 375.013 55.6346C372.212 55.4595 370.034 53.9365 369.273 51.5383C369.135 51.1007 369.083 50.2779 369.083 49.9103C369.083 49.8052 368.979 49.7177 368.875 49.7177H363.359C363.256 49.7177 363.152 49.8228 363.152 49.9103C363.152 53.9365 364.138 56.1772 366.852 58.2079C369.394 60.1335 372.16 60.9387 375.031 60.9387C382.552 60.9387 386.46 56.6324 387.238 52.1685C387.93 47.7746 386.65 43.8359 382.777 41.2276Z" fill="white"/>
<path d="M138.321 21.6915C138.217 21.6915 138.148 21.7615 138.113 21.8315L133.6 36.9037C133.531 37.0963 133.272 37.0963 133.203 36.9037L128.672 21.8315C128.638 21.7265 128.569 21.6915 128.482 21.6915H120.079C119.975 21.6915 119.871 21.7965 119.871 21.9015V60.361C119.871 60.4661 119.975 60.5536 120.079 60.5536H125.595C125.698 60.5536 125.802 60.4486 125.802 60.361V31.1269C125.802 30.8993 126.131 30.8643 126.2 31.0569L130.747 46.2166L131.076 47.2845C131.11 47.3895 131.18 47.4245 131.266 47.4245H135.485C135.589 47.4245 135.658 47.3545 135.675 47.2845L136.004 46.2166L140.551 31.0569C140.62 30.8293 140.949 30.8818 140.949 31.1269V60.361C140.949 60.4661 141.053 60.5536 141.139 60.5536H146.655C146.759 60.5536 146.845 60.4486 146.845 60.361V21.9015C146.845 21.7965 146.741 21.6915 146.655 21.6915H138.321Z" fill="white"/>
<path d="M298.381 21.6915C298.277 21.6915 298.208 21.7615 298.173 21.8315L293.661 36.9037C293.591 37.0963 293.332 37.0963 293.263 36.9037L288.733 21.8315C288.698 21.7265 288.629 21.6915 288.525 21.6915H280.139C280.035 21.6915 279.932 21.7965 279.932 21.9015V60.361C279.932 60.4661 280.035 60.5536 280.139 60.5536H285.655C285.759 60.5536 285.862 60.4486 285.862 60.361V31.1269C285.862 30.8993 286.191 30.8643 286.26 31.0569L290.808 46.2166L291.136 47.2845C291.171 47.3895 291.24 47.4245 291.344 47.4245H295.562C295.666 47.4245 295.735 47.3545 295.753 47.2845L296.081 46.2166L300.646 31.0569C300.715 30.8293 301.044 30.8818 301.044 31.1269V60.361C301.044 60.4661 301.147 60.5536 301.234 60.5536H306.75C306.853 60.5536 306.957 60.4486 306.957 60.361V21.9015C306.957 21.7965 306.853 21.6915 306.75 21.6915H298.381Z" fill="white"/>
<path d="M227.281 21.6915H201.224C201.121 21.6915 201.034 21.7965 201.034 21.9015V26.698C201.034 26.8031 201.138 26.9081 201.224 26.9081H211.288V60.3786C211.288 60.4836 211.391 60.5711 211.478 60.5711H216.993C217.097 60.5711 217.184 60.4661 217.184 60.3786V26.9081H227.247C227.351 26.9081 227.437 26.8031 227.437 26.698V21.9015C227.472 21.7965 227.42 21.6915 227.281 21.6915Z" fill="white"/>
<path d="M259.788 60.5711H264.802C264.941 60.5711 265.027 60.4311 265.01 60.3085L254.653 21.709C254.618 21.6039 254.549 21.5689 254.445 21.5689H247.235C247.131 21.5689 247.062 21.6389 247.027 21.709L236.67 60.3085C236.636 60.4486 236.739 60.5711 236.878 60.5711H241.892C241.996 60.5711 242.065 60.5011 242.1 60.4311L245.108 49.1926C245.143 49.0875 245.212 49.0525 245.316 49.0525H256.399C256.503 49.0525 256.572 49.1225 256.606 49.1926L259.615 60.4311C259.632 60.5011 259.736 60.5711 259.788 60.5711ZM246.63 43.5733L250.658 28.5361C250.728 28.3435 250.987 28.3435 251.056 28.5361L255.085 43.5733C255.12 43.7133 255.016 43.8359 254.895 43.8359H246.82C246.699 43.8359 246.595 43.6958 246.63 43.5733Z" fill="white"/>
<path d="M345.36 60.5711H350.374C350.512 60.5711 350.599 60.4311 350.582 60.3085L340.224 21.709C340.19 21.6039 340.121 21.5689 340.034 21.5689H332.824C332.72 21.5689 332.651 21.6389 332.617 21.709L322.259 60.3085C322.225 60.4486 322.329 60.5711 322.45 60.5711H327.464C327.568 60.5711 327.637 60.5011 327.671 60.4311L330.68 49.1926C330.715 49.0875 330.784 49.0525 330.87 49.0525H341.954C342.057 49.0525 342.126 49.1225 342.161 49.1926L345.17 60.4311C345.187 60.5011 345.256 60.5711 345.36 60.5711ZM332.184 43.5733L336.213 28.5361C336.282 28.3435 336.542 28.3435 336.611 28.5361L340.639 43.5733C340.674 43.7133 340.57 43.8359 340.449 43.8359H332.392C332.253 43.8359 332.15 43.6958 332.184 43.5733Z" fill="white"/>
<path d="M169.254 54.8643V42.9256C169.254 42.8206 169.357 42.7155 169.461 42.7155H184.158C184.262 42.7155 184.349 42.6105 184.349 42.523V37.7265C184.349 37.6214 184.245 37.5339 184.158 37.5339H169.461C169.357 37.5339 169.254 37.4289 169.254 37.3238V27.1182C169.254 27.0131 169.357 26.9256 169.461 26.9256H186.164C186.268 26.9256 186.372 26.8206 186.372 26.7155V21.919C186.372 21.814 186.268 21.709 186.164 21.709H163.565C163.461 21.709 163.375 21.814 163.375 21.919V60.361C163.375 60.4661 163.479 60.5536 163.565 60.5536H186.856C186.959 60.5536 187.063 60.4486 187.063 60.361V55.302C187.063 55.1969 186.959 55.1094 186.856 55.1094H169.427C169.323 55.0744 169.254 55.0044 169.254 54.8643Z" fill="white"/>
<path d="M433.145 60.2385L414.073 40.3348C414.004 40.2648 414.004 40.1247 414.073 40.0722L431.243 22.0766C431.381 21.9365 431.277 21.744 431.105 21.744H424.067C423.998 21.744 423.963 21.779 423.929 21.814L409.37 37.0788C409.232 37.2188 409.042 37.1138 409.042 36.9387V21.9365C409.042 21.8315 408.938 21.7265 408.834 21.7265H403.318C403.215 21.7265 403.128 21.8315 403.128 21.9365V60.3961C403.128 60.5011 403.232 60.6061 403.318 60.6061H408.834C408.938 60.6061 409.042 60.5011 409.042 60.3961V43.4683C409.042 43.2932 409.266 43.2057 409.37 43.3282L425.865 60.5361C425.9 60.5711 425.969 60.6061 426.004 60.6061H433.041C433.179 60.5711 433.283 60.326 433.145 60.2385Z" fill="white"/>
<path d="M82.2123 1L48.8412 25.9978L55.0485 11.2757L82.2123 1Z" fill="#E17726"/>
<path d="M5.23395 1L38.3111 26.2429L32.3977 11.2757L5.23395 1Z" fill="#E27625"/>
<path d="M70.1952 58.9606L61.3251 72.7024L80.3276 77.9891L85.7741 59.2582L70.1952 58.9606Z" fill="#E27625"/>
<path d="M1.70664 59.2582L7.11864 77.9891L26.1039 72.7024L17.251 58.9606L1.70664 59.2582Z" fill="#E27625"/>
<path d="M25.0837 35.7659L19.7927 43.8359L38.605 44.6937L37.9826 24.1947L25.0837 35.7659Z" fill="#E27625"/>
<path d="M62.3798 35.7659L49.2734 23.9672L48.8412 44.6937L67.6535 43.8359L62.3798 35.7659Z" fill="#E27625"/>
<path d="M26.1039 72.7024L37.4812 67.1357L27.6773 59.3982L26.1039 72.7024Z" fill="#E27625"/>
<path d="M49.9651 67.1357L61.3251 72.7024L59.7689 59.3982L49.9651 67.1357Z" fill="#E27625"/>
<path d="M61.3251 72.7024L49.9651 67.1357L50.8815 74.593L50.795 77.7615L61.3251 72.7024Z" fill="#D5BFB2"/>
<path d="M26.1039 72.7024L36.6685 77.7615L36.5993 74.593L37.4812 67.1357L26.1039 72.7024Z" fill="#D5BFB2"/>
<path d="M36.8587 54.4617L27.418 51.6608L34.0922 48.5624L36.8587 54.4617Z" fill="#233447"/>
<path d="M50.5875 54.4617L53.3713 48.5624L60.0628 51.6608L50.5875 54.4617Z" fill="#233447"/>
<path d="M26.1039 72.7024L27.7465 58.9606L17.251 59.2582L26.1039 72.7024Z" fill="#CC6228"/>
<path d="M59.6997 58.9606L61.3251 72.7024L70.1952 59.2582L59.6997 58.9606Z" fill="#CC6228"/>
<path d="M67.6535 43.8359L48.8412 44.6937L50.5875 54.4617L53.3713 48.5624L60.0628 51.6608L67.6535 43.8359Z" fill="#CC6228"/>
<path d="M27.418 51.6608L34.0922 48.5624L36.8587 54.4617L38.605 44.6937L19.7927 43.8359L27.418 51.6608Z" fill="#CC6228"/>
<path d="M19.7927 43.8359L27.6773 59.3982L27.418 51.6608L19.7927 43.8359Z" fill="#E27525"/>
<path d="M60.0628 51.6608L59.7689 59.3982L67.6535 43.8359L60.0628 51.6608Z" fill="#E27525"/>
<path d="M38.605 44.6937L36.8587 54.4617L39.0719 65.9978L39.5733 50.8031L38.605 44.6937Z" fill="#E27525"/>
<path d="M48.8412 44.6937L47.9248 50.768L48.3743 65.9978L50.5875 54.4617L48.8412 44.6937Z" fill="#E27525"/>
<path d="M50.5875 54.4617L48.3743 65.9978L49.9651 67.1357L59.7689 59.3982L60.0628 51.6608L50.5875 54.4617Z" fill="#F5841F"/>
<path d="M27.418 51.6608L27.6773 59.3982L37.4812 67.1357L39.0719 65.9978L36.8587 54.4617L27.418 51.6608Z" fill="#F5841F"/>
<path d="M50.795 77.7615L50.8815 74.593L50.0342 73.8578H37.4293L36.5993 74.593L36.6685 77.7615L26.1039 72.7024L29.8041 75.7659L37.291 81H50.1207L57.6594 75.7659L61.3251 72.7024L50.795 77.7615Z" fill="#C0AC9D"/>
<path d="M49.9651 67.1357L48.3743 65.9978H39.0719L37.4812 67.1357L36.5993 74.593L37.4293 73.8578H50.0342L50.8815 74.593L49.9651 67.1357Z" fill="#0C0D10"/>
<path d="M83.6301 27.6258L86.4312 13.8315L82.2123 1L49.9651 25.1751L62.3798 35.7659L79.8953 40.93L83.7684 36.361L82.0739 35.1357L84.754 32.6674L82.7137 31.0744L85.3765 29.0088L83.6301 27.6258Z" fill="#763E1A"/>
<path d="M1.01501 13.8315L3.85069 27.6258L2.03517 29.0088L4.74981 31.0744L2.69222 32.6674L5.37228 35.1357L3.69508 36.361L7.55091 40.93L25.0837 35.7659L37.4812 25.1751L5.23395 1L1.01501 13.8315Z" fill="#763E1A"/>
<path d="M79.8953 40.93L62.3798 35.7659L67.6535 43.8359L59.7689 59.3982L70.1952 59.2582H85.7741L79.8953 40.93Z" fill="#F5841F"/>
<path d="M25.0837 35.7659L7.55091 40.93L1.70664 59.2582H17.251L27.6773 59.3982L19.7927 43.8359L25.0837 35.7659Z" fill="#F5841F"/>
<path d="M48.8412 44.6937L49.9651 25.1751L55.0485 11.2757H32.3977L37.4812 25.1751L38.605 44.6937L39.0373 50.8381L39.0719 65.9978H48.3743L48.4089 50.8381L48.8412 44.6937Z" fill="#F5841F"/>
<path d="M382.777 41.2276L382.995 40.904L382.994 40.9035L382.777 41.2276ZM375.705 37.3238L375.511 37.662L375.513 37.6633L375.705 37.3238ZM371.244 34.593L370.994 34.8926L370.995 34.8934L371.244 34.593ZM371.815 27.4683L371.596 27.145L371.596 27.1453L371.815 27.4683ZM381.359 31.1094H381.749V31.0841L381.746 31.059L381.359 31.1094ZM386.858 31.0569L386.469 31.0884L386.47 31.0999L386.471 31.1114L386.858 31.0569ZM383.123 23.4945L382.887 23.8052L382.888 23.8058L383.123 23.4945ZM368.512 39.8972L368.721 39.5675L368.719 39.5665L368.512 39.8972ZM381.152 52.3085L380.8 52.1401L380.8 52.1406L381.152 52.3085ZM375.013 55.6346L375.04 55.2454L375.038 55.2453L375.013 55.6346ZM369.273 51.5383L368.901 51.6558L368.901 51.6562L369.273 51.5383ZM366.852 58.2079L367.088 57.897L367.086 57.8955L366.852 58.2079ZM387.238 52.1685L387.622 52.2355L387.623 52.2291L387.238 52.1685ZM138.113 21.8315L137.763 21.6588L137.749 21.6882L137.74 21.7196L138.113 21.8315ZM133.6 36.9037L133.967 37.0356L133.971 37.0257L133.974 37.0156L133.6 36.9037ZM133.203 36.9037L132.829 37.016L132.832 37.0259L132.836 37.0356L133.203 36.9037ZM128.672 21.8315L129.046 21.7192L129.043 21.7095L128.672 21.8315ZM126.2 31.0569L126.573 30.9448L126.57 30.9348L126.567 30.925L126.2 31.0569ZM130.747 46.2166L130.374 46.3287L130.375 46.3313L130.747 46.2166ZM131.076 47.2845L130.703 47.3992L130.705 47.4064L131.076 47.2845ZM135.675 47.2845L135.302 47.1698L135.299 47.1803L135.297 47.191L135.675 47.2845ZM136.004 46.2166L136.377 46.3313L136.377 46.3287L136.004 46.2166ZM140.551 31.0569L140.178 30.9435L140.178 30.9448L140.551 31.0569ZM298.173 21.8315L297.824 21.6588L297.809 21.6882L297.8 21.7196L298.173 21.8315ZM293.661 36.9037L294.028 37.0356L294.031 37.0257L294.034 37.0156L293.661 36.9037ZM293.263 36.9037L292.889 37.016L292.892 37.0259L292.896 37.0356L293.263 36.9037ZM288.733 21.8315L289.106 21.7192L289.103 21.7095L288.733 21.8315ZM286.26 31.0569L286.634 30.9448L286.631 30.9348L286.627 30.925L286.26 31.0569ZM290.808 46.2166L290.434 46.3287L290.435 46.3313L290.808 46.2166ZM291.136 47.2845L290.763 47.3992L290.766 47.4064L291.136 47.2845ZM295.753 47.2845L295.38 47.1698L295.377 47.1803L295.374 47.191L295.753 47.2845ZM296.081 46.2166L296.454 46.3313L296.455 46.3291L296.081 46.2166ZM300.646 31.0569L300.273 30.9435L300.273 30.9444L300.646 31.0569ZM211.288 26.9081H211.678V26.518H211.288V26.9081ZM217.184 26.9081V26.518H216.794V26.9081H217.184ZM227.437 21.9015L227.067 21.7796L227.047 21.839V21.9015H227.437ZM265.01 60.3085L265.396 60.254L265.393 60.2304L265.387 60.2074L265.01 60.3085ZM254.653 21.709L255.029 21.6079L255.027 21.5974L255.023 21.587L254.653 21.709ZM247.027 21.709L246.678 21.5363L246.661 21.5707L246.651 21.6079L247.027 21.709ZM236.67 60.3085L236.294 60.2074L236.292 60.215L236.67 60.3085ZM242.1 60.4311L242.449 60.6038L242.466 60.5692L242.476 60.5319L242.1 60.4311ZM245.108 49.1926L244.738 49.0706L244.734 49.081L244.731 49.0917L245.108 49.1926ZM256.606 49.1926L256.983 49.0917L256.973 49.0544L256.956 49.0198L256.606 49.1926ZM259.615 60.4311L259.994 60.3375L259.992 60.3302L259.615 60.4311ZM246.63 43.5733L247.005 43.6792L247.007 43.6742L246.63 43.5733ZM250.658 28.5361L250.291 28.4043L250.286 28.4195L250.282 28.4352L250.658 28.5361ZM251.056 28.5361L251.433 28.4352L251.429 28.4195L251.423 28.4043L251.056 28.5361ZM255.085 43.5733L255.464 43.4798L255.462 43.4724L255.085 43.5733ZM350.582 60.3085L350.968 60.254L350.964 60.2304L350.958 60.2074L350.582 60.3085ZM340.224 21.709L340.601 21.6079L340.598 21.5974L340.595 21.587L340.224 21.709ZM332.617 21.709L332.267 21.5363L332.25 21.5707L332.24 21.6079L332.617 21.709ZM322.259 60.3085L321.883 60.2074L321.881 60.215L322.259 60.3085ZM327.671 60.4311L328.021 60.6038L328.038 60.5692L328.048 60.5319L327.671 60.4311ZM330.68 49.1926L330.309 49.0706L330.306 49.081L330.303 49.0917L330.68 49.1926ZM342.161 49.1926L342.538 49.0917L342.528 49.0544L342.511 49.0198L342.161 49.1926ZM345.17 60.4311L345.548 60.3375L345.546 60.3302L345.17 60.4311ZM332.184 43.5733L332.56 43.6792L332.561 43.6742L332.184 43.5733ZM336.213 28.5361L335.846 28.4043L335.84 28.4195L335.836 28.4352L336.213 28.5361ZM336.611 28.5361L336.987 28.4352L336.983 28.4195L336.978 28.4043L336.611 28.5361ZM340.639 43.5733L341.018 43.4798L341.016 43.4724L340.639 43.5733ZM169.427 55.1094L169.302 55.479L169.363 55.4995H169.427V55.1094ZM433.145 60.2385L432.863 60.5084L432.896 60.5427L432.936 60.5681L433.145 60.2385ZM414.073 40.3348L414.355 40.0649L414.351 40.0607L414.073 40.3348ZM414.073 40.0722L414.309 40.3829L414.334 40.364L414.355 40.3415L414.073 40.0722ZM431.243 22.0766L430.965 21.8024L430.961 21.8073L431.243 22.0766ZM423.929 21.814L423.651 21.5399L423.647 21.5448L423.929 21.814ZM409.37 37.0788L409.648 37.3529L409.652 37.348L409.37 37.0788ZM409.37 43.3282L409.072 43.5803L409.08 43.5894L409.089 43.5981L409.37 43.3282ZM425.865 60.5361L425.584 60.806L425.588 60.8102L425.865 60.5361ZM433.041 60.6061V60.9962H433.09L433.137 60.9842L433.041 60.6061ZM82.2123 1L82.5828 0.87817C82.5496 0.777071 82.4764 0.693944 82.3804 0.648062C82.2844 0.602179 82.1738 0.597526 82.0742 0.635181L82.2123 1ZM48.8412 25.9978L48.4818 25.8463C48.4133 26.0086 48.4622 26.1966 48.601 26.3051C48.7397 26.4136 48.934 26.4156 49.075 26.31L48.8412 25.9978ZM5.23395 1L5.37196 0.635181C5.27242 0.597526 5.16182 0.602179 5.06579 0.648062C4.96976 0.693944 4.89666 0.777071 4.86342 0.87817L5.23395 1ZM38.3111 26.2429L38.0745 26.553C38.2137 26.6592 38.4067 26.6596 38.5464 26.554C38.6861 26.4483 38.7382 26.2625 38.6739 26.0996L38.3111 26.2429ZM70.1952 58.9606L70.2027 58.5706C70.0676 58.5681 69.9408 58.6356 69.8675 58.7491L70.1952 58.9606ZM80.3276 77.9891L80.223 78.3648C80.4289 78.4221 80.6424 78.3031 80.7021 78.098L80.3276 77.9891ZM85.7741 59.2582L86.1487 59.3671C86.1704 59.2925 86.1693 59.2131 86.1456 59.1391L85.7741 59.2582ZM1.70664 59.2582L1.33503 59.1397C1.31156 59.2133 1.31047 59.2922 1.33192 59.3665L1.70664 59.2582ZM7.11864 77.9891L6.74392 78.0973C6.80331 78.3029 7.01717 78.4222 7.22327 78.3648L7.11864 77.9891ZM17.251 58.9606L17.5789 58.7494C17.5057 58.6357 17.3788 58.568 17.2435 58.5706L17.251 58.9606ZM19.7927 43.8359L19.4665 43.622C19.39 43.7388 19.3817 43.8876 19.4448 44.0122L19.7927 43.8359ZM37.9826 24.1947L38.3725 24.1829C38.3678 24.0312 38.2757 23.8959 38.1361 23.8362C37.9966 23.7764 37.8351 23.8031 37.7221 23.9044L37.9826 24.1947ZM49.2734 23.9672L49.5344 23.6773C49.421 23.5752 49.2585 23.5486 49.1185 23.6092C48.9785 23.6698 48.8866 23.8065 48.8835 23.959L49.2734 23.9672ZM67.6535 43.8359L68.0014 44.0122C68.0644 43.8878 68.0563 43.7392 67.98 43.6225L67.6535 43.8359ZM50.8815 74.593L51.2714 74.6036C51.2719 74.5842 51.271 74.5647 51.2686 74.5454L50.8815 74.593ZM50.795 77.7615L50.4051 77.7508C50.4014 77.8868 50.4688 78.0148 50.5829 78.0888C50.697 78.1628 50.8414 78.172 50.9639 78.1131L50.795 77.7615ZM36.6685 77.7615L36.5 78.1133C36.6222 78.1718 36.7661 78.1627 36.88 78.0892C36.9938 78.0158 37.0614 77.8885 37.0584 77.753L36.6685 77.7615ZM36.5993 74.593L36.212 74.5472C36.2098 74.5652 36.209 74.5834 36.2094 74.6015L36.5993 74.593ZM34.0922 48.5624L34.4453 48.3968C34.3541 48.2022 34.1228 48.1181 33.9279 48.2086L34.0922 48.5624ZM53.3713 48.5624L53.5352 48.2084C53.3407 48.1184 53.11 48.2021 53.0186 48.3959L53.3713 48.5624ZM27.7465 58.9606L28.1338 59.0069C28.1472 58.8943 28.111 58.7813 28.0345 58.6976C27.958 58.6138 27.8488 58.5675 27.7354 58.5707L27.7465 58.9606ZM59.6997 58.9606L59.7108 58.5707C59.5975 58.5675 59.4884 58.6137 59.4119 58.6974C59.3354 58.7811 59.2991 58.8939 59.3124 59.0064L59.6997 58.9606ZM39.5733 50.8031L39.9632 50.8159C39.964 50.7912 39.9624 50.7664 39.9586 50.742L39.5733 50.8031ZM47.9248 50.768L47.5391 50.7099C47.5356 50.7329 47.5342 50.7562 47.5349 50.7796L47.9248 50.768ZM50.0342 73.8578L50.2899 73.5632C50.2189 73.5016 50.1281 73.4677 50.0342 73.4677V73.8578ZM37.4293 73.8578V73.4677C37.334 73.4677 37.242 73.5026 37.1706 73.5658L37.4293 73.8578ZM29.8041 75.7659L29.5553 76.0663C29.5635 76.0731 29.5719 76.0795 29.5806 76.0855L29.8041 75.7659ZM37.291 81L37.0675 81.3197C37.133 81.3655 37.211 81.3901 37.291 81.3901V81ZM50.1207 81V81.3901C50.2002 81.3901 50.2778 81.3657 50.3431 81.3204L50.1207 81ZM57.6594 75.7659L57.8819 76.0863C57.8914 76.0796 57.9007 76.0726 57.9096 76.0652L57.6594 75.7659ZM83.6301 27.6258L83.2479 27.5482C83.2186 27.6922 83.2728 27.8404 83.388 27.9316L83.6301 27.6258ZM86.4312 13.8315L86.8134 13.9091C86.8269 13.8428 86.8229 13.774 86.8017 13.7097L86.4312 13.8315ZM49.9651 25.1751L49.5987 25.0411C49.5856 25.0769 49.5778 25.1145 49.5757 25.1526L49.9651 25.1751ZM83.7684 36.361L84.0659 36.6133C84.1362 36.5304 84.1687 36.4219 84.1556 36.3141C84.1425 36.2062 84.085 36.1087 83.997 36.045L83.7684 36.361ZM82.0739 35.1357L81.8097 34.8488C81.7236 34.9281 81.6777 35.0418 81.6846 35.1587C81.6915 35.2756 81.7505 35.3831 81.8454 35.4517L82.0739 35.1357ZM84.754 32.6674L85.0182 32.9543C85.1025 32.8767 85.1484 32.766 85.1437 32.6515C85.1391 32.5371 85.0843 32.4304 84.994 32.36L84.754 32.6674ZM82.7137 31.0744L82.4746 30.7662C82.3795 30.84 82.3238 30.9535 82.3236 31.0738C82.3235 31.1941 82.3788 31.3078 82.4737 31.3818L82.7137 31.0744ZM85.3765 29.0088L85.6155 29.3169C85.7102 29.2435 85.7659 29.1306 85.7665 29.0107C85.7671 28.8908 85.7126 28.7774 85.6186 28.703L85.3765 29.0088ZM1.01501 13.8315L0.644479 13.7097C0.623226 13.7743 0.619252 13.8434 0.632954 13.91L1.01501 13.8315ZM3.85069 27.6258L4.08705 27.9361C4.2063 27.8453 4.26294 27.6941 4.23275 27.5473L3.85069 27.6258ZM2.03517 29.0088L1.79882 28.6985C1.70194 28.7723 1.64509 28.8871 1.64512 29.0089C1.64515 29.1306 1.70206 29.2454 1.79897 29.3192L2.03517 29.0088ZM4.74981 31.0744L4.98859 31.3828C5.08446 31.3086 5.14036 31.194 5.13986 31.0728C5.13935 30.9515 5.08249 30.8374 4.98601 30.764L4.74981 31.0744ZM2.69222 32.6674L2.45344 32.359C2.36264 32.4293 2.30743 32.536 2.30252 32.6507C2.29762 32.7655 2.34351 32.8765 2.42798 32.9543L2.69222 32.6674ZM5.37228 35.1357L5.60238 35.4506C5.69663 35.3818 5.75509 35.2743 5.7617 35.1578C5.76831 35.0412 5.72238 34.9278 5.63651 34.8488L5.37228 35.1357ZM3.69508 36.361L3.46497 36.0461C3.37762 36.1099 3.3207 36.2072 3.30781 36.3146C3.29492 36.422 3.32722 36.5299 3.39699 36.6126L3.69508 36.361ZM37.4812 25.1751L37.8706 25.1526C37.8684 25.1145 37.8606 25.0769 37.8475 25.0411L37.4812 25.1751ZM39.0373 50.8381L39.4274 50.8372C39.4273 50.8283 39.427 50.8195 39.4264 50.8107L39.0373 50.8381ZM48.4089 50.8381L48.0198 50.8107C48.0192 50.8195 48.0189 50.8283 48.0188 50.8372L48.4089 50.8381ZM382.994 40.9035C381.852 40.1384 380.656 39.4872 379.46 38.8641C378.258 38.2382 377.065 37.6451 375.897 36.9844L375.513 37.6633C376.697 38.333 377.915 38.9391 379.1 39.556C380.29 40.1759 381.454 40.8112 382.56 41.5516L382.994 40.9035ZM375.9 36.9857C374.339 36.0879 372.79 35.3672 371.493 34.2926L370.995 34.8934C372.361 36.0244 374.028 36.8092 375.511 37.6619L375.9 36.9857ZM371.494 34.2933C369.476 32.6116 369.863 29.2615 372.033 27.7912L371.596 27.1453C369.063 28.8611 368.517 32.8283 370.994 34.8926L371.494 34.2933ZM372.033 27.7916C373.613 26.7252 375.721 26.4867 377.504 27.0667C379.272 27.6424 380.692 29.0118 380.972 31.1599L381.746 31.059C381.421 28.5681 379.755 26.979 377.745 26.3249C375.749 25.6753 373.388 25.9357 371.596 27.145L372.033 27.7916ZM380.969 31.1094C380.969 31.302 381.067 31.4518 381.183 31.5427C381.294 31.6303 381.432 31.6745 381.567 31.6745V30.8944C381.598 30.8944 381.632 30.9036 381.665 30.9299C381.703 30.9595 381.749 31.0219 381.749 31.1094H380.969ZM381.567 31.6745H386.65V30.8944H381.567V31.6745ZM386.65 31.6745C386.821 31.6745 386.988 31.6072 387.104 31.4749C387.221 31.3435 387.268 31.1708 387.244 31.0024L386.471 31.1114C386.465 31.0655 386.477 31.0066 386.52 30.9583C386.563 30.9092 386.617 30.8944 386.65 30.8944V31.6745ZM387.246 31.0254C386.98 27.7412 385.716 24.9647 383.358 23.1833L382.888 23.8058C385.025 25.4204 386.216 27.9655 386.469 31.0884L387.246 31.0254ZM383.359 23.1839C381.152 21.5086 378.633 20.6012 375.93 20.6012V21.3813C378.449 21.3813 380.805 22.2244 382.887 23.8052L383.359 23.1839ZM375.93 20.6012C372.5 20.6012 369.819 21.5195 367.85 22.9957C365.883 24.4712 364.649 26.4878 364.089 28.6459C362.972 32.9432 364.516 37.8564 368.305 40.2278L368.719 39.5665C365.263 37.404 363.799 32.8642 364.844 28.8421C365.364 26.8405 366.503 24.9807 368.318 23.6198C370.132 22.2595 372.642 21.3813 375.93 21.3813V20.6012ZM368.304 40.2268C368.735 40.4998 370.741 41.546 372.913 42.7011C375.107 43.8674 377.492 45.1556 378.731 45.9342L379.146 45.2737C377.878 44.4768 375.465 43.1742 373.279 42.0123C371.073 40.8391 369.119 39.8196 368.721 39.5676L368.304 40.2268ZM378.731 45.9342C381.084 47.413 381.797 50.0576 380.8 52.1401L381.503 52.4769C382.685 50.008 381.807 46.9459 379.146 45.2737L378.731 45.9342ZM380.8 52.1406C379.891 54.0459 377.475 55.4109 375.04 55.2454L374.987 56.0237C377.704 56.2084 380.442 54.7025 381.504 52.4765L380.8 52.1406ZM375.038 55.2453C372.368 55.0784 370.348 53.6385 369.645 51.4203L368.901 51.6562C369.719 54.2346 372.057 55.8406 374.989 56.0239L375.038 55.2453ZM369.645 51.4207C369.588 51.2424 369.544 50.9608 369.514 50.6597C369.485 50.3648 369.473 50.08 369.473 49.9103H368.693C368.693 50.1082 368.706 50.4186 368.738 50.7364C368.769 51.048 368.819 51.3966 368.901 51.6558L369.645 51.4207ZM369.473 49.9103C369.473 49.7255 369.382 49.5778 369.279 49.4847C369.176 49.3922 369.033 49.3277 368.875 49.3277V50.1078C368.821 50.1078 368.782 50.087 368.757 50.0646C368.731 50.0414 368.693 49.99 368.693 49.9103H369.473ZM368.875 49.3277H363.359V50.1078H368.875V49.3277ZM363.359 49.3277C363.181 49.3277 363.037 49.4135 362.947 49.4993C362.862 49.5808 362.762 49.724 362.762 49.9103H363.542C363.542 49.964 363.527 50.0019 363.517 50.021C363.507 50.0413 363.495 50.0545 363.486 50.0631C363.474 50.0744 363.435 50.1078 363.359 50.1078V49.3277ZM362.762 49.9103C362.762 51.9523 363.011 53.5796 363.628 54.9659C364.247 56.3582 365.222 57.4753 366.619 58.5202L367.086 57.8955C365.768 56.9098 364.893 55.8913 364.34 54.649C363.785 53.4007 363.542 51.8945 363.542 49.9103H362.762ZM366.617 58.5188C369.231 60.4995 372.082 61.3288 375.031 61.3288V60.5487C372.239 60.5487 369.557 59.7674 367.088 57.897L366.617 58.5188ZM375.031 61.3288C382.73 61.3288 386.81 56.8977 387.622 52.2355L386.854 52.1015C386.11 56.3671 382.375 60.5487 375.031 60.5487V61.3288ZM387.623 52.2291C388.334 47.7125 387.015 43.6112 382.995 40.904L382.559 41.5511C386.285 44.0605 387.525 47.8367 386.853 52.1078L387.623 52.2291ZM138.321 21.3014C138.016 21.3014 137.837 21.5107 137.763 21.6588L138.463 22.0042C138.459 22.0127 138.449 22.029 138.427 22.0459C138.401 22.0658 138.362 22.0815 138.321 22.0815V21.3014ZM137.74 21.7196L133.227 36.7918L133.974 37.0156L138.487 21.9434L137.74 21.7196ZM133.233 36.7719C133.257 36.706 133.327 36.6581 133.401 36.6581C133.476 36.6581 133.546 36.706 133.57 36.7719L132.836 37.0356C133.028 37.5724 133.775 37.5724 133.967 37.0356L133.233 36.7719ZM133.576 36.7914L129.046 21.7192L128.299 21.9438L132.829 37.016L133.576 36.7914ZM129.043 21.7095C129.005 21.5938 128.934 21.4791 128.815 21.3988C128.699 21.3206 128.577 21.3014 128.482 21.3014V22.0815C128.474 22.0815 128.43 22.0799 128.379 22.0454C128.324 22.0088 128.305 21.9641 128.302 21.9535L129.043 21.7095ZM120.079 21.3014C119.899 21.3014 119.752 21.3887 119.659 21.483C119.565 21.5776 119.481 21.7238 119.481 21.9015H120.262C120.262 21.9742 120.229 22.0154 120.214 22.0312C120.198 22.0467 120.156 22.0815 120.079 22.0815V21.3014ZM119.481 21.9015V60.361H120.262V21.9015H119.481ZM119.481 60.361C119.481 60.5457 119.572 60.6935 119.675 60.7867C119.778 60.8791 119.921 60.9437 120.079 60.9437V60.1636C120.133 60.1636 120.172 60.1844 120.197 60.2068C120.223 60.2299 120.262 60.2814 120.262 60.361H119.481ZM120.079 60.9437H125.595V60.1636H120.079V60.9437ZM125.595 60.9437C125.774 60.9437 125.917 60.8578 126.007 60.7721C126.092 60.6906 126.192 60.5473 126.192 60.361H125.412C125.412 60.3074 125.427 60.2694 125.437 60.2503C125.448 60.23 125.459 60.2168 125.468 60.2082C125.48 60.1969 125.52 60.1636 125.595 60.1636V60.9437ZM126.192 60.361V31.1269H125.412V60.361H126.192ZM126.192 31.1269C126.192 31.1713 126.173 31.2253 126.132 31.267C126.096 31.3034 126.057 31.3166 126.031 31.3204C126.005 31.3242 125.971 31.3219 125.934 31.3035C125.893 31.2829 125.852 31.2431 125.833 31.1887L126.567 30.925C126.453 30.6074 126.139 30.5165 125.919 30.5483C125.683 30.5825 125.412 30.7759 125.412 31.1269H126.192ZM125.826 31.169L130.374 46.3287L131.121 46.1046L126.573 30.9448L125.826 31.169ZM130.375 46.3313L130.703 47.3992L131.449 47.1698L131.12 46.1019L130.375 46.3313ZM130.705 47.4064C130.743 47.5221 130.814 47.6368 130.933 47.7172C131.049 47.7954 131.172 47.8146 131.266 47.8146V47.0345C131.274 47.0345 131.319 47.0361 131.37 47.0706C131.424 47.1071 131.443 47.1518 131.446 47.1625L130.705 47.4064ZM131.266 47.8146H135.485V47.0345H131.266V47.8146ZM135.485 47.8146C135.779 47.8146 135.996 47.6116 136.054 47.378L135.297 47.191C135.32 47.0974 135.399 47.0345 135.485 47.0345V47.8146ZM136.048 47.3991L136.376 46.3313L135.631 46.1019L135.302 47.1698L136.048 47.3991ZM136.377 46.3287L140.925 31.169L140.178 30.9448L135.63 46.1046L136.377 46.3287ZM140.924 31.1703C140.914 31.2048 140.885 31.2477 140.837 31.2757C140.792 31.3011 140.747 31.3054 140.711 31.2993C140.675 31.2931 140.636 31.2747 140.605 31.2398C140.571 31.2016 140.559 31.1576 140.559 31.1269H141.339C141.339 30.797 141.102 30.5741 140.841 30.53C140.58 30.486 140.276 30.6202 140.178 30.9435L140.924 31.1703ZM140.559 31.1269V60.361H141.339V31.1269H140.559ZM140.559 60.361C140.559 60.5441 140.648 60.6887 140.742 60.7791C140.834 60.8661 140.973 60.9437 141.139 60.9437V60.1636C141.218 60.1636 141.263 60.1974 141.281 60.2143C141.302 60.2347 141.339 60.283 141.339 60.361H140.559ZM141.139 60.9437H146.655V60.1636H141.139V60.9437ZM146.655 60.9437C146.841 60.9437 146.986 60.8512 147.074 60.7557C147.16 60.6632 147.235 60.5241 147.235 60.361H146.455C146.455 60.2855 146.486 60.2427 146.503 60.2246C146.523 60.2034 146.573 60.1636 146.655 60.1636V60.9437ZM147.235 60.361V21.9015H146.455V60.361H147.235ZM147.235 21.9015C147.235 21.7253 147.152 21.5821 147.068 21.491C146.988 21.4055 146.844 21.3014 146.655 21.3014V22.0815C146.599 22.0815 146.559 22.0652 146.54 22.0549C146.519 22.0439 146.505 22.0322 146.497 22.0232C146.486 22.0109 146.455 21.9727 146.455 21.9015H147.235ZM298.381 21.3014C298.076 21.3014 297.897 21.5107 297.824 21.6588L298.523 22.0042C298.519 22.0127 298.509 22.029 298.487 22.0459C298.461 22.0658 298.423 22.0815 298.381 22.0815V21.3014ZM297.8 21.7196L293.287 36.7918L294.034 37.0156L298.547 21.9434L297.8 21.7196ZM293.293 36.7719C293.317 36.706 293.387 36.6581 293.462 36.6581C293.536 36.6581 293.606 36.706 293.63 36.7719L292.896 37.0356C293.089 37.5724 293.835 37.5724 294.028 37.0356L293.293 36.7719ZM293.636 36.7914L289.106 21.7192L288.359 21.9438L292.889 37.016L293.636 36.7914ZM289.103 21.7095C289.065 21.5929 288.992 21.4737 288.863 21.3925C288.743 21.316 288.616 21.3014 288.525 21.3014V22.0815C288.538 22.0815 288.498 22.0844 288.446 22.0517C288.387 22.0142 288.366 21.965 288.362 21.9535L289.103 21.7095ZM288.525 21.3014H280.139V22.0815H288.525V21.3014ZM280.139 21.3014C279.959 21.3014 279.812 21.3887 279.719 21.483C279.626 21.5776 279.542 21.7239 279.542 21.9015H280.322C280.322 21.9742 280.29 22.0154 280.274 22.0312C280.259 22.0467 280.216 22.0815 280.139 22.0815V21.3014ZM279.542 21.9015V60.361H280.322V21.9015H279.542ZM279.542 60.361C279.542 60.5457 279.632 60.6935 279.736 60.7866C279.838 60.8791 279.981 60.9437 280.139 60.9437V60.1636C280.194 60.1636 280.233 60.1844 280.257 60.2068C280.283 60.2299 280.322 60.2814 280.322 60.361H279.542ZM280.139 60.9437H285.655V60.1636H280.139V60.9437ZM285.655 60.9437C285.834 60.9437 285.977 60.8578 286.067 60.7721C286.152 60.6906 286.252 60.5474 286.252 60.361H285.472C285.472 60.3073 285.488 60.2694 285.497 60.2502C285.508 60.2299 285.519 60.2168 285.528 60.2082C285.54 60.1969 285.58 60.1636 285.655 60.1636V60.9437ZM286.252 60.361V31.1269H285.472V60.361H286.252ZM286.252 31.1269C286.252 31.1713 286.234 31.2253 286.192 31.267C286.156 31.3034 286.118 31.3166 286.091 31.3204C286.065 31.3242 286.031 31.3219 285.995 31.3035C285.953 31.2829 285.913 31.2431 285.893 31.1887L286.627 30.925C286.513 30.6074 286.2 30.5165 285.979 30.5483C285.743 30.5825 285.472 30.7759 285.472 31.1269H286.252ZM285.887 31.169L290.434 46.3287L291.181 46.1046L286.634 30.9448L285.887 31.169ZM290.435 46.3313L290.763 47.3992L291.509 47.1698L291.18 46.1019L290.435 46.3313ZM290.766 47.4064C290.804 47.523 290.877 47.6422 291.005 47.7235C291.126 47.8 291.252 47.8146 291.344 47.8146V47.0345C291.331 47.0345 291.371 47.0315 291.422 47.0643C291.482 47.1018 291.503 47.151 291.507 47.1625L290.766 47.4064ZM291.344 47.8146H295.562V47.0345H291.344V47.8146ZM295.562 47.8146C295.856 47.8146 296.074 47.6116 296.131 47.378L295.374 47.191C295.397 47.0974 295.476 47.0345 295.562 47.0345V47.8146ZM296.126 47.3992L296.454 46.3313L295.708 46.1019L295.38 47.1698L296.126 47.3992ZM296.455 46.3291L301.019 31.1694L300.273 30.9444L295.708 46.1042L296.455 46.3291ZM301.019 31.1703C301.009 31.2048 300.98 31.2477 300.931 31.2757C300.887 31.3011 300.842 31.3054 300.806 31.2993C300.77 31.2931 300.731 31.2747 300.7 31.2398C300.666 31.2016 300.654 31.1576 300.654 31.1269H301.434C301.434 30.7971 301.197 30.5741 300.936 30.53C300.675 30.486 300.371 30.6203 300.273 30.9435L301.019 31.1703ZM300.654 31.1269V60.361H301.434V31.1269H300.654ZM300.654 60.361C300.654 60.5441 300.742 60.6887 300.837 60.7791C300.929 60.8661 301.068 60.9437 301.234 60.9437V60.1636C301.313 60.1636 301.358 60.1974 301.375 60.2143C301.397 60.2347 301.434 60.283 301.434 60.361H300.654ZM301.234 60.9437H306.75V60.1636H301.234V60.9437ZM306.75 60.9437C306.928 60.9437 307.072 60.8578 307.162 60.7721C307.247 60.6906 307.347 60.5474 307.347 60.361H306.567C306.567 60.3073 306.582 60.2694 306.592 60.2502C306.603 60.2299 306.614 60.2168 306.623 60.2082C306.635 60.1969 306.674 60.1636 306.75 60.1636V60.9437ZM307.347 60.361V21.9015H306.567V60.361H307.347ZM307.347 21.9015C307.347 21.7238 307.263 21.5776 307.17 21.483C307.077 21.3887 306.93 21.3014 306.75 21.3014V22.0815C306.673 22.0815 306.63 22.0468 306.615 22.0312C306.599 22.0154 306.567 21.9742 306.567 21.9015H307.347ZM306.75 21.3014H298.381V22.0815H306.75V21.3014ZM201.224 21.3014C201.037 21.3014 200.889 21.3956 200.797 21.4997C200.706 21.6035 200.644 21.7456 200.644 21.9015H201.424C201.424 21.9525 201.405 21.9895 201.383 22.0145C201.361 22.0399 201.308 22.0815 201.224 22.0815V21.3014ZM200.644 21.9015V26.698H201.424V21.9015H200.644ZM200.644 26.698C200.644 26.8743 200.727 27.0175 200.812 27.1085C200.891 27.194 201.035 27.2981 201.224 27.2981V26.518C201.28 26.518 201.32 26.5343 201.339 26.5447C201.36 26.5556 201.374 26.5674 201.382 26.5764C201.393 26.5886 201.424 26.6268 201.424 26.698H200.644ZM201.224 27.2981H211.288V26.518H201.224V27.2981ZM210.897 26.9081V60.3786H211.678V26.9081H210.897ZM210.897 60.3786C210.897 60.5616 210.986 60.7062 211.081 60.7966C211.172 60.8836 211.312 60.9612 211.478 60.9612V60.1811C211.557 60.1811 211.601 60.2149 211.619 60.2318C211.641 60.2522 211.678 60.3005 211.678 60.3786H210.897ZM211.478 60.9612H216.993V60.1811H211.478V60.9612ZM216.993 60.9612C217.179 60.9612 217.324 60.8688 217.413 60.7732C217.499 60.6807 217.574 60.5416 217.574 60.3786H216.794C216.794 60.303 216.825 60.2602 216.842 60.2421C216.861 60.2209 216.911 60.1811 216.993 60.1811V60.9612ZM217.574 60.3786V26.9081H216.794V60.3786H217.574ZM217.184 27.2981H227.247V26.518H217.184V27.2981ZM227.247 27.2981C227.435 27.2981 227.583 27.204 227.674 27.0998C227.765 26.996 227.827 26.8539 227.827 26.698H227.047C227.047 26.6472 227.066 26.6101 227.088 26.5851C227.11 26.5597 227.163 26.518 227.247 26.518V27.2981ZM227.827 26.698V21.9015H227.047V26.698H227.827ZM227.808 22.0235C227.854 21.8835 227.855 21.702 227.75 21.5426C227.638 21.3728 227.455 21.3014 227.281 21.3014V22.0815C227.247 22.0815 227.158 22.0627 227.098 21.9716C227.045 21.891 227.055 21.8146 227.067 21.7796L227.808 22.0235ZM259.788 60.9612H264.802V60.1811H259.788V60.9612ZM264.802 60.9612C265.015 60.9612 265.181 60.8502 265.279 60.7158C265.374 60.5868 265.419 60.4198 265.396 60.254L264.624 60.363C264.617 60.3198 264.629 60.2841 264.649 60.2558C264.674 60.222 264.728 60.1811 264.802 60.1811V60.9612ZM265.387 60.2074L255.029 21.6079L254.276 21.8101L264.633 60.4096L265.387 60.2074ZM255.023 21.587C254.985 21.4704 254.912 21.3512 254.783 21.2699C254.663 21.1935 254.536 21.1789 254.445 21.1789V21.959C254.458 21.959 254.418 21.9619 254.366 21.9292C254.307 21.8917 254.286 21.8425 254.282 21.831L255.023 21.587ZM247.235 21.1789C246.93 21.1789 246.751 21.3882 246.678 21.5363L247.377 21.8817C247.373 21.8902 247.363 21.9065 247.341 21.9233C247.315 21.9432 247.277 21.959 247.235 21.959V21.1789ZM246.651 21.6079L236.294 60.2074L237.047 60.4096L247.404 21.8101L246.651 21.6079ZM236.292 60.215C236.193 60.6134 236.499 60.9612 236.878 60.9612V60.1811C236.926 60.1811 236.977 60.2037 237.013 60.2472C237.049 60.2927 237.061 60.352 237.049 60.402L236.292 60.215ZM236.878 60.9612H241.892V60.1811H236.878V60.9612ZM241.892 60.9612C242.197 60.9612 242.376 60.7518 242.449 60.6038L241.75 60.2584C241.754 60.2499 241.764 60.2336 241.786 60.2167C241.812 60.1968 241.85 60.1811 241.892 60.1811V60.9612ZM242.476 60.5319L245.485 49.2934L244.731 49.0917L241.723 60.3302L242.476 60.5319ZM245.479 49.3145C245.475 49.3261 245.454 49.3753 245.395 49.4128C245.343 49.4455 245.303 49.4426 245.316 49.4426V48.6625C245.225 48.6625 245.098 48.677 244.977 48.7535C244.849 48.8347 244.776 48.954 244.738 49.0706L245.479 49.3145ZM245.316 49.4426H256.399V48.6625H245.316V49.4426ZM256.399 49.4426C256.357 49.4426 256.319 49.4268 256.293 49.4069C256.271 49.39 256.261 49.3737 256.257 49.3653L256.956 49.0198C256.883 48.8718 256.704 48.6625 256.399 48.6625V49.4426ZM256.23 49.2934L259.238 60.5319L259.992 60.3302L256.983 49.0917L256.23 49.2934ZM259.236 60.5246C259.277 60.687 259.39 60.7904 259.453 60.838C259.492 60.8675 259.536 60.8946 259.584 60.9157C259.625 60.934 259.698 60.9612 259.788 60.9612V60.1811C259.852 60.1811 259.893 60.1995 259.899 60.2024C259.913 60.2083 259.92 60.2134 259.924 60.2167C259.929 60.2199 259.937 60.227 259.948 60.2407C259.957 60.2525 259.981 60.2847 259.994 60.3376L259.236 60.5246ZM247.007 43.6742L251.035 28.637L250.282 28.4352L246.253 43.4724L247.007 43.6742ZM251.026 28.668C251.002 28.7338 250.932 28.7817 250.857 28.7817C250.783 28.7817 250.713 28.7338 250.689 28.668L251.423 28.4043C251.23 27.8674 250.484 27.8674 250.291 28.4043L251.026 28.668ZM250.679 28.637L254.708 43.6742L255.462 43.4724L251.433 28.4352L250.679 28.637ZM254.706 43.6668C254.683 43.5711 254.752 43.4458 254.895 43.4458V44.2259C255.279 44.2259 255.556 43.8556 255.464 43.4798L254.706 43.6668ZM254.895 43.4458H246.82V44.2259H254.895V43.4458ZM246.82 43.4458C246.912 43.4458 246.963 43.4955 246.982 43.5205C247.001 43.547 247.027 43.6033 247.005 43.6792L246.254 43.4674C246.198 43.6659 246.259 43.8535 246.351 43.9805C246.443 44.1062 246.607 44.2259 246.82 44.2259V43.4458ZM345.36 60.9612H350.374V60.1811H345.36V60.9612ZM350.374 60.9612C350.587 60.9612 350.753 60.8502 350.851 60.7157C350.945 60.5868 350.991 60.4198 350.968 60.254L350.195 60.363C350.189 60.3198 350.201 60.2841 350.221 60.2558C350.246 60.222 350.3 60.1811 350.374 60.1811V60.9612ZM350.958 60.2074L340.601 21.6079L339.848 21.8101L350.205 60.4096L350.958 60.2074ZM340.595 21.587C340.557 21.4713 340.486 21.3566 340.367 21.2763C340.251 21.198 340.129 21.1789 340.034 21.1789V21.959C340.026 21.959 339.982 21.9573 339.931 21.9228C339.876 21.8863 339.857 21.8416 339.854 21.831L340.595 21.587ZM332.824 21.1789C332.519 21.1789 332.34 21.3882 332.267 21.5363L332.966 21.8817C332.962 21.8902 332.952 21.9065 332.93 21.9233C332.904 21.9432 332.866 21.959 332.824 21.959V21.1789ZM332.24 21.6079L321.883 60.2074L322.636 60.4096L332.993 21.8101L332.24 21.6079ZM321.881 60.215C321.788 60.5908 322.065 60.9612 322.45 60.9612V60.1811C322.592 60.1811 322.662 60.3063 322.638 60.402L321.881 60.215ZM322.45 60.9612H327.464V60.1811H322.45V60.9612ZM327.464 60.9612C327.769 60.9612 327.948 60.7519 328.021 60.6038L327.322 60.2584C327.326 60.2499 327.336 60.2335 327.358 60.2167C327.384 60.1968 327.422 60.1811 327.464 60.1811V60.9612ZM328.048 60.5319L331.057 49.2934L330.303 49.0917L327.295 60.3302L328.048 60.5319ZM331.05 49.3145C331.047 49.3252 331.028 49.3699 330.974 49.4065C330.923 49.4409 330.878 49.4426 330.87 49.4426V48.6625C330.776 48.6625 330.653 48.6816 330.537 48.7598C330.418 48.8402 330.348 48.9549 330.309 49.0706L331.05 49.3145ZM330.87 49.4426H341.954V48.6625H330.87V49.4426ZM341.954 49.4426C341.912 49.4426 341.874 49.4268 341.847 49.4069C341.825 49.3901 341.816 49.3738 341.811 49.3653L342.511 49.0198C342.438 48.8717 342.258 48.6625 341.954 48.6625V49.4426ZM341.784 49.2934L344.793 60.5319L345.546 60.3302L342.538 49.0917L341.784 49.2934ZM344.791 60.5246C344.849 60.758 345.066 60.9612 345.36 60.9612V60.1811C345.446 60.1811 345.525 60.2441 345.548 60.3376L344.791 60.5246ZM332.561 43.6742L336.59 28.637L335.836 28.4352L331.807 43.4724L332.561 43.6742ZM336.58 28.668C336.556 28.7338 336.487 28.7817 336.412 28.7817C336.337 28.7817 336.267 28.7338 336.244 28.668L336.978 28.4043C336.785 27.8674 336.039 27.8674 335.846 28.4043L336.58 28.668ZM336.234 28.637L340.263 43.6742L341.016 43.4724L336.987 28.4352L336.234 28.637ZM340.261 43.6668C340.237 43.5711 340.307 43.4458 340.449 43.4458V44.2259C340.834 44.2259 341.111 43.8556 341.018 43.4798L340.261 43.6668ZM340.449 43.4458H332.392V44.2259H340.449V43.4458ZM332.392 43.4458C332.459 43.4458 332.507 43.4796 332.532 43.512C332.555 43.5423 332.581 43.6022 332.56 43.6792L331.809 43.4674C331.702 43.8472 332.004 44.2259 332.392 44.2259V43.4458ZM169.644 54.8643V42.9256H168.864V54.8643H169.644ZM169.644 42.9256C169.644 42.9982 169.612 43.0394 169.596 43.0553C169.581 43.0708 169.538 43.1056 169.461 43.1056V42.3255C169.281 42.3255 169.134 42.4128 169.041 42.5071C168.948 42.6017 168.864 42.7479 168.864 42.9256H169.644ZM169.461 43.1056H184.158V42.3255H169.461V43.1056ZM184.158 43.1056C184.344 43.1056 184.489 43.0132 184.578 42.9176C184.664 42.8251 184.739 42.6861 184.739 42.523H183.959C183.959 42.4474 183.99 42.4047 184.007 42.3865C184.026 42.3654 184.076 42.3255 184.158 42.3255V43.1056ZM184.739 42.523V37.7265H183.959V42.523H184.739ZM184.739 37.7265C184.739 37.5434 184.65 37.3988 184.555 37.3084C184.464 37.2215 184.324 37.1439 184.158 37.1439V37.924C184.079 37.924 184.035 37.8901 184.017 37.8732C183.995 37.8528 183.959 37.8045 183.959 37.7265H184.739ZM184.158 37.1439H169.461V37.924H184.158V37.1439ZM169.461 37.1439C169.538 37.1439 169.581 37.1786 169.596 37.1942C169.612 37.21 169.644 37.2512 169.644 37.3238H168.864C168.864 37.5015 168.948 37.6477 169.041 37.7424C169.134 37.8367 169.281 37.924 169.461 37.924V37.1439ZM169.644 37.3238V27.1182H168.864V37.3238H169.644ZM169.644 27.1182C169.644 27.1978 169.605 27.2492 169.58 27.2724C169.555 27.2948 169.516 27.3157 169.461 27.3157V26.5355C169.303 26.5355 169.16 26.6001 169.058 26.6926C168.954 26.7858 168.864 26.9335 168.864 27.1182H169.644ZM169.461 27.3157H186.164V26.5355H169.461V27.3157ZM186.164 27.3157C186.345 27.3157 186.491 27.2284 186.584 27.1341C186.678 27.0394 186.762 26.8932 186.762 26.7155H185.982C185.982 26.6429 186.014 26.6017 186.029 26.5859C186.045 26.5703 186.087 26.5355 186.164 26.5355V27.3157ZM186.762 26.7155V21.919H185.982V26.7155H186.762ZM186.762 21.919C186.762 21.7414 186.678 21.5951 186.584 21.5005C186.491 21.4062 186.345 21.3189 186.164 21.3189V22.099C186.087 22.099 186.045 22.0642 186.029 22.0487C186.014 22.0329 185.982 21.9917 185.982 21.919H186.762ZM163.565 21.3189C163.377 21.3189 163.23 21.4131 163.138 21.5173C163.047 21.621 162.985 21.7631 162.985 21.919H163.765C163.765 21.9699 163.746 22.007 163.724 22.032C163.702 22.0574 163.649 22.099 163.565 22.099V21.3189ZM162.985 60.361C162.985 60.5441 163.074 60.6887 163.169 60.7791C163.26 60.8661 163.399 60.9437 163.565 60.9437V60.1636C163.644 60.1636 163.689 60.1974 163.707 60.2143C163.728 60.2347 163.765 60.283 163.765 60.361H162.985ZM186.856 60.9437C187.035 60.9437 187.178 60.8578 187.268 60.7721C187.353 60.6906 187.453 60.5474 187.453 60.361H186.673C186.673 60.3073 186.688 60.2694 186.698 60.2502C186.709 60.23 186.72 60.2168 186.729 60.2082C186.741 60.1969 186.781 60.1636 186.856 60.1636V60.9437ZM187.453 60.361V55.302H186.673V60.361H187.453ZM187.453 55.302C187.453 55.1173 187.363 54.9695 187.259 54.8764C187.157 54.7839 187.014 54.7194 186.856 54.7194V55.4995C186.801 55.4995 186.762 55.4787 186.737 55.4562C186.712 55.4331 186.673 55.3816 186.673 55.302H187.453ZM186.856 54.7194H169.427V55.4995H186.856V54.7194ZM169.551 54.7398C169.548 54.7387 169.58 54.7488 169.611 54.7886C169.644 54.8314 169.644 54.868 169.644 54.8643H168.864C168.864 55.0007 168.899 55.1423 168.992 55.2639C169.083 55.3825 169.202 55.4451 169.302 55.479L169.551 54.7398ZM433.426 59.9687L414.355 40.0649L413.792 40.6046L432.863 60.5084L433.426 59.9687ZM414.351 40.0607C414.404 40.1143 414.411 40.1689 414.411 40.1969C414.411 40.2184 414.406 40.3095 414.309 40.3829L413.837 39.7616C413.672 39.8874 413.631 40.0748 413.631 40.1969C413.631 40.3256 413.674 40.4852 413.796 40.6089L414.351 40.0607ZM414.355 40.3415L431.525 22.3458L430.961 21.8073L413.791 39.8029L414.355 40.3415ZM431.52 22.3507C431.699 22.1698 431.746 21.9136 431.645 21.6945C431.55 21.4885 431.341 21.3539 431.105 21.3539V22.134C431.041 22.134 430.971 22.0957 430.936 22.0211C430.919 21.9835 430.912 21.9389 430.92 21.8942C430.929 21.8486 430.95 21.8179 430.965 21.8025L431.52 22.3507ZM431.105 21.3539H424.067V22.134H431.105V21.3539ZM424.067 21.3539C423.825 21.3539 423.689 21.5014 423.651 21.5399L424.206 22.0881C424.216 22.0779 424.217 22.0779 424.215 22.0792C424.213 22.0816 424.203 22.0899 424.188 22.0992C424.171 22.1091 424.151 22.1186 424.128 22.1253C424.104 22.1319 424.083 22.134 424.067 22.134V21.3539ZM423.647 21.5448L409.088 36.8096L409.652 37.348L424.211 22.0832L423.647 21.5448ZM409.093 36.8047C409.108 36.7893 409.139 36.7666 409.187 36.7574C409.235 36.7484 409.282 36.7558 409.321 36.7742C409.398 36.8107 409.432 36.8816 409.432 36.9387H408.651C408.651 37.1709 408.78 37.3819 408.987 37.4796C409.21 37.5845 409.468 37.5346 409.648 37.3529L409.093 36.8047ZM409.432 36.9387V21.9365H408.651V36.9387H409.432ZM409.432 21.9365C409.432 21.7589 409.348 21.6127 409.254 21.518C409.161 21.4237 409.015 21.3364 408.834 21.3364V22.1165C408.757 22.1165 408.715 22.0817 408.699 22.0662C408.684 22.0503 408.651 22.0092 408.651 21.9365H409.432ZM408.834 21.3364H403.318V22.1165H408.834V21.3364ZM403.318 21.3364C403.131 21.3364 402.983 21.4306 402.891 21.5348C402.8 21.6385 402.738 21.7806 402.738 21.9365H403.518C403.518 21.9874 403.499 22.0245 403.477 22.0495C403.455 22.0749 403.402 22.1165 403.318 22.1165V21.3364ZM402.738 21.9365V60.3961H403.518V21.9365H402.738ZM402.738 60.3961C402.738 60.5723 402.821 60.7155 402.906 60.8065C402.985 60.8921 403.129 60.9962 403.318 60.9962V60.2161C403.374 60.2161 403.414 60.2323 403.433 60.2427C403.454 60.2537 403.468 60.2654 403.476 60.2744C403.487 60.2867 403.518 60.3249 403.518 60.3961H402.738ZM403.318 60.9962H408.834V60.2161H403.318V60.9962ZM408.834 60.9962C409.015 60.9962 409.161 60.9089 409.254 60.8146C409.348 60.7199 409.432 60.5737 409.432 60.3961H408.651C408.651 60.3234 408.684 60.2822 408.699 60.2664C408.715 60.2509 408.757 60.2161 408.834 60.2161V60.9962ZM409.432 60.3961V43.4683H408.651V60.3961H409.432ZM409.432 43.4683C409.432 43.565 409.367 43.6263 409.315 43.6474C409.268 43.6669 409.155 43.6784 409.072 43.5803L409.668 43.0762C409.481 42.8555 409.204 42.8496 409.019 42.9259C408.829 43.0039 408.651 43.1965 408.651 43.4683H409.432ZM409.089 43.5981L425.584 60.806L426.147 60.2662L409.652 43.0583L409.089 43.5981ZM425.588 60.8102C425.644 60.8666 425.708 60.9068 425.758 60.9323C425.796 60.9513 425.891 60.9962 426.004 60.9962V60.2161C426.031 60.2161 426.052 60.2193 426.064 60.2217C426.077 60.2242 426.086 60.227 426.092 60.2288C426.103 60.2324 426.109 60.2354 426.111 60.2362C426.113 60.2372 426.115 60.2385 426.118 60.2408C426.121 60.2425 426.13 60.2491 426.143 60.262L425.588 60.8102ZM426.004 60.9962H433.041V60.2161H426.004V60.9962ZM433.137 60.9842C433.376 60.9236 433.514 60.7214 433.566 60.5671C433.62 60.4094 433.642 60.0916 433.353 59.9089L432.936 60.5681C432.874 60.5285 432.837 60.4656 432.825 60.4085C432.815 60.3601 432.824 60.3277 432.827 60.3169C432.831 60.3046 432.838 60.2935 432.849 60.2816C432.858 60.2713 432.888 60.2425 432.945 60.228L433.137 60.9842ZM81.9784 0.687823L48.6073 25.6856L49.075 26.31L82.4461 1.31218L81.9784 0.687823ZM49.2006 26.1493L55.4079 11.4273L54.6891 11.1242L48.4818 25.8463L49.2006 26.1493ZM55.1865 11.6405L82.3503 1.36482L82.0742 0.635181L54.9105 10.9109L55.1865 11.6405ZM4.99732 1.31007L38.0745 26.553L38.5477 25.9328L5.47058 0.689928L4.99732 1.31007ZM38.6739 26.0996L32.7604 11.1324L32.0349 11.419L37.9483 26.3862L38.6739 26.0996ZM32.5357 10.9109L5.37196 0.635181L5.09594 1.36482L32.2597 11.6405L32.5357 10.9109ZM69.8675 58.7491L60.9974 72.4909L61.6528 72.9139L70.5229 59.1721L69.8675 58.7491ZM61.2205 73.0782L80.223 78.3648L80.4321 77.6133L61.4296 72.3266L61.2205 73.0782ZM80.7021 78.098L86.1487 59.3671L85.3996 59.1493L79.953 77.8801L80.7021 78.098ZM85.7816 58.8682L70.2027 58.5706L70.1878 59.3506L85.7667 59.6482L85.7816 58.8682ZM1.33192 59.3665L6.74392 78.0973L7.49336 77.8808L2.08137 59.1499L1.33192 59.3665ZM7.22327 78.3648L26.2085 73.0782L25.9992 72.3266L7.01401 77.6133L7.22327 78.3648ZM26.4318 72.4912L17.5789 58.7494L16.9231 59.1718L25.776 72.9136L26.4318 72.4912ZM17.2435 58.5706L1.69918 58.8682L1.71411 59.6482L17.2585 59.3506L17.2435 58.5706ZM24.7575 35.552L19.4665 43.622L20.1189 44.0497L25.4099 35.9797L24.7575 35.552ZM19.775 44.2255L38.5873 45.0833L38.6228 44.304L19.8105 43.4462L19.775 44.2255ZM38.9949 44.6818L38.3725 24.1829L37.5927 24.2066L38.2152 44.7055L38.9949 44.6818ZM37.7221 23.9044L24.8232 35.4755L25.3442 36.0562L38.243 24.4851L37.7221 23.9044ZM62.6408 35.476L49.5344 23.6773L49.0125 24.2571L62.1188 36.0558L62.6408 35.476ZM48.8835 23.959L48.4512 44.6855L49.2311 44.7018L49.6634 23.9753L48.8835 23.959ZM48.8589 45.0833L67.6712 44.2255L67.6357 43.4462L48.8234 44.304L48.8589 45.0833ZM67.98 43.6225L62.7063 35.5525L62.0533 35.9792L67.327 44.0493L67.98 43.6225ZM26.2753 73.0528L37.6526 67.486L37.3097 66.7853L25.9324 72.352L26.2753 73.0528ZM37.7228 66.8295L27.919 59.0921L27.4357 59.7044L37.2395 67.4418L37.7228 66.8295ZM27.29 59.3524L25.7165 72.6566L26.4912 72.7482L28.0647 59.4441L27.29 59.3524ZM49.7934 67.4859L61.1534 73.0527L61.4967 72.3521L50.1367 66.7854L49.7934 67.4859ZM61.7125 72.6571L60.1563 59.3529L59.3815 59.4436L60.9377 72.7477L61.7125 72.6571ZM59.5273 59.0921L49.7234 66.8295L50.2067 67.4418L60.0105 59.7044L59.5273 59.0921ZM49.5779 67.1832L50.4943 74.6406L51.2686 74.5454L50.3522 67.0881L49.5779 67.1832ZM50.4916 74.5824L50.4051 77.7508L51.1849 77.7721L51.2714 74.6036L50.4916 74.5824ZM50.9639 78.1131L61.494 73.054L61.1562 72.3508L50.6261 77.4099L50.9639 78.1131ZM25.9354 73.0542L36.5 78.1133L36.837 77.4097L26.2723 72.3506L25.9354 73.0542ZM37.0584 77.753L36.9893 74.5845L36.2094 74.6015L36.2785 77.77L37.0584 77.753ZM36.9867 74.6388L37.8685 67.1815L37.0938 67.0899L36.212 74.5472L36.9867 74.6388ZM36.9696 54.0878L27.5289 51.2869L27.307 52.0348L36.7477 54.8356L36.9696 54.0878ZM27.5822 52.0146L34.2564 48.9161L33.9279 48.2086L27.2537 51.307L27.5822 52.0146ZM33.739 48.728L36.5055 54.6273L37.2118 54.2961L34.4453 48.3968L33.739 48.728ZM50.9403 54.6282L53.7241 48.7288L53.0186 48.3959L50.2348 54.2952L50.9403 54.6282ZM53.2074 48.9163L59.8989 52.0148L60.2267 51.3069L53.5352 48.2084L53.2074 48.9163ZM59.9523 51.2868L50.477 54.0877L50.6981 54.8358L60.1734 52.0349L59.9523 51.2868ZM26.4911 72.7487L28.1338 59.0069L27.3592 58.9143L25.7166 72.6561L26.4911 72.7487ZM27.7354 58.5707L17.24 58.8683L17.2621 59.6481L27.7575 59.3505L27.7354 58.5707ZM16.9252 59.4727L25.7781 72.9169L26.4296 72.4879L17.5768 59.0437L16.9252 59.4727ZM59.3124 59.0064L60.9377 72.7482L61.7124 72.6566L60.0871 58.9148L59.3124 59.0064ZM61.6506 72.9172L70.5208 59.473L69.8696 59.0434L60.9995 72.4876L61.6506 72.9172ZM70.2063 58.8683L59.7108 58.5707L59.6887 59.3505L70.1842 59.6481L70.2063 58.8683ZM48.4572 44.7623L50.2036 54.5303L50.9715 54.3931L49.2251 44.625L48.4572 44.7623ZM60.3428 51.9324L67.9334 44.1075L67.3735 43.5643L59.7829 51.3892L60.3428 51.9324ZM37.2426 54.5303L38.989 44.7623L38.2211 44.625L36.4747 54.3931L37.2426 54.5303ZM19.5134 44.1081L27.1386 51.933L27.6973 51.3886L20.0721 43.5637L19.5134 44.1081ZM19.4448 44.0122L27.3294 59.5745L28.0253 59.222L20.1407 43.6596L19.4448 44.0122ZM28.0671 59.3852L27.8078 51.6478L27.0281 51.6739L27.2875 59.4113L28.0671 59.3852ZM59.6731 51.646L59.3791 59.3834L60.1587 59.4131L60.4526 51.6756L59.6731 51.646ZM60.1168 59.5745L68.0014 44.0122L67.3055 43.6596L59.421 59.222L60.1168 59.5745ZM36.4756 54.5352L38.6888 66.0713L39.455 65.9243L37.2418 54.3882L36.4756 54.5352ZM39.4617 66.0107L39.9632 50.8159L39.1835 50.7902L38.6821 65.9849L39.4617 66.0107ZM39.9586 50.742L38.9903 44.6326L38.2198 44.7547L39.1881 50.8641L39.9586 50.742ZM48.4555 44.6355L47.5391 50.7099L48.3104 50.8262L49.2268 44.7518L48.4555 44.6355ZM47.5349 50.7796L47.9844 66.0093L48.7642 65.9863L48.3146 50.7565L47.5349 50.7796ZM48.7574 66.0713L50.9706 54.5352L50.2045 54.3882L47.9912 65.9243L48.7574 66.0713ZM48.1474 66.315L49.7381 67.4529L50.192 66.8184L48.6012 65.6806L48.1474 66.315ZM37.7081 67.4529L39.2988 66.315L38.845 65.6806L37.2542 66.8184L37.7081 67.4529ZM51.1371 74.2984L50.2899 73.5632L49.7786 74.1524L50.6258 74.8876L51.1371 74.2984ZM50.0342 73.4677H37.4293V74.2478H50.0342V73.4677ZM37.1706 73.5658L36.3407 74.301L36.858 74.885L37.6879 74.1497L37.1706 73.5658ZM25.8551 73.0028L29.5553 76.0663L30.0528 75.4654L26.3526 72.402L25.8551 73.0028ZM29.5806 76.0855L37.0675 81.3197L37.5144 80.6803L30.0276 75.4462L29.5806 76.0855ZM37.291 81.3901H50.1207V80.6099H37.291V81.3901ZM50.3431 81.3204L57.8819 76.0863L57.437 75.4455L49.8982 80.6796L50.3431 81.3204ZM57.9096 76.0652L61.5752 73.0017L61.0749 72.4031L57.4093 75.4666L57.9096 76.0652ZM48.3743 65.6077H39.0719V66.3879H48.3743V65.6077ZM84.0124 27.7034L86.8134 13.9091L86.0489 13.7539L83.2479 27.5482L84.0124 27.7034ZM86.8017 13.7097L82.5828 0.87817L81.8417 1.12183L86.0607 13.9533L86.8017 13.7097ZM81.9783 0.687912L49.7311 24.863L50.199 25.4871L82.4462 1.31209L81.9783 0.687912ZM49.7119 25.4718L62.1266 36.0626L62.6329 35.4691L50.2182 24.8783L49.7119 25.4718ZM62.2695 36.14L79.785 41.3041L80.0056 40.5559L62.4901 35.3917L62.2695 36.14ZM80.1928 41.1822L84.0659 36.6133L83.4709 36.1088L79.5978 40.6778L80.1928 41.1822ZM83.997 36.045L82.3025 34.8196L81.8454 35.4517L83.5398 36.6771L83.997 36.045ZM82.3382 35.4226L85.0182 32.9543L84.4898 32.3805L81.8097 34.8488L82.3382 35.4226ZM84.994 32.36L82.9537 30.767L82.4737 31.3818L84.514 32.9748L84.994 32.36ZM82.9528 31.3826L85.6155 29.3169L85.1374 28.7006L82.4746 30.7662L82.9528 31.3826ZM85.6186 28.703L83.8723 27.32L83.388 27.9316L85.1343 29.3145L85.6186 28.703ZM0.632954 13.91L3.46863 27.7044L4.23275 27.5473L1.39708 13.753L0.632954 13.91ZM3.61434 27.3155L1.79882 28.6985L2.27152 29.319L4.08705 27.9361L3.61434 27.3155ZM1.79897 29.3192L4.51362 31.3848L4.98601 30.764L2.27136 28.6983L1.79897 29.3192ZM4.51103 30.766L2.45344 32.359L2.93099 32.9758L4.98859 31.3828L4.51103 30.766ZM2.42798 32.9543L5.10804 35.4226L5.63651 34.8488L2.95645 32.3805L2.42798 32.9543ZM5.14217 34.8207L3.46497 36.0461L3.92518 36.676L5.60238 35.4506L5.14217 34.8207ZM3.39699 36.6126L7.25282 41.1815L7.84899 40.6784L3.99316 36.1095L3.39699 36.6126ZM7.66111 41.3041L25.1939 36.14L24.9735 35.3917L7.4407 40.5558L7.66111 41.3041ZM25.3371 36.0624L37.7345 25.4716L37.2278 24.8785L24.8304 35.4693L25.3371 36.0624ZM37.7151 24.863L5.46792 0.687912L4.99999 1.31209L37.2472 25.4871L37.7151 24.863ZM4.86342 0.87817L0.644479 13.7097L1.38555 13.9533L5.60449 1.12183L4.86342 0.87817ZM59.7741 59.7883L70.2004 59.6482L70.19 58.8682L59.7637 59.0082L59.7741 59.7883ZM70.1952 59.6482H85.7741V58.8681H70.1952V59.6482ZM86.1456 59.1391L80.2667 40.8108L79.5239 41.0491L85.4027 59.3773L86.1456 59.1391ZM7.17929 40.8115L1.33503 59.1397L2.07826 59.3767L7.92252 41.0485L7.17929 40.8115ZM1.70664 59.6482H17.251V58.8681H1.70664V59.6482ZM17.2458 59.6482L27.6721 59.7883L27.6826 59.0082L17.2562 58.8682L17.2458 59.6482ZM49.2306 44.7161L50.3545 25.1975L49.5757 25.1526L48.4518 44.6712L49.2306 44.7161ZM50.3314 25.309L55.4148 11.4097L54.6822 11.1417L49.5987 25.0411L50.3314 25.309ZM55.0485 10.8857H32.3977V11.6658H55.0485V10.8857ZM32.0314 11.4097L37.1148 25.309L37.8475 25.0411L32.764 11.1417L32.0314 11.4097ZM37.0918 25.1975L38.2156 44.7161L38.9945 44.6712L37.8706 25.1526L37.0918 25.1975ZM38.216 44.721L38.6482 50.8654L39.4264 50.8107L38.9941 44.6663L38.216 44.721ZM38.6473 50.839L38.6819 65.9987L39.462 65.9969L39.4274 50.8372L38.6473 50.839ZM48.7644 65.9987L48.7989 50.839L48.0188 50.8372L47.9843 65.9969L48.7644 65.9987ZM48.798 50.8654L49.2302 44.721L48.4521 44.6663L48.0198 50.8107L48.798 50.8654ZM146.655 21.3014H138.321V22.0815H146.655V21.3014ZM128.482 21.3014H120.079V22.0815H128.482V21.3014ZM227.281 21.3014H201.224V22.0815H227.281V21.3014ZM254.445 21.1789H247.235V21.959H254.445V21.1789ZM340.034 21.1789H332.824V21.959H340.034V21.1789ZM186.164 21.3189H163.565V22.099H186.164V21.3189ZM162.985 21.919V60.361H163.765V21.919H162.985ZM163.565 60.9437H186.856V60.1636H163.565V60.9437Z" fill="#F5841F"/>
</g>
</svg>
