<svg width="327" height="80" viewBox="0 0 327 80" fill="none" xmlns="http://www.w3.org/2000/svg">
<path d="M134.896 11.3383C128.872 11.3383 124.49 12.7723 120.774 16.0777L114.21 21.8099C113.662 22.255 112.567 22.582 111.8 21.9202C111.034 21.2583 110.924 20.3758 111.585 19.4973L115.086 14.2064C115.634 13.4302 115.196 12.4414 114.206 12.4414H105.78C105.549 12.4388 105.32 12.4826 105.106 12.5704C104.893 12.6581 104.698 12.788 104.535 12.9525C104.372 13.1169 104.243 13.3125 104.156 13.5278C104.069 13.7432 104.025 13.9738 104.028 14.2064V65.7999C104.028 66.7848 104.798 67.5609 105.78 67.5609H114.535C114.765 67.5636 114.994 67.5198 115.208 67.4323C115.421 67.3448 115.615 67.2152 115.778 67.0512C115.942 66.8872 116.071 66.6921 116.158 66.4772C116.245 66.2624 116.289 66.0321 116.287 65.7999V36.6938C116.287 23.3542 127.346 21.2583 131.504 21.2583C140.364 21.2583 143.541 27.6563 143.541 32.506V65.796C143.541 66.7888 144.311 67.5609 145.293 67.5609H154.048C154.278 67.563 154.506 67.5189 154.72 67.4312C154.933 67.3434 155.126 67.2138 155.289 67.0498C155.452 66.8859 155.581 66.6909 155.668 66.4763C155.755 66.2617 155.799 66.0318 155.797 65.7999V31.4029C155.797 19.0561 147.809 11.3383 134.888 11.3383H134.896ZM191.488 11.1137C174.518 11.1137 163.683 21.5892 163.683 35.8074V43.6355C163.683 58.6298 174.518 68.8807 191.484 68.8807C206.482 68.8807 216.989 61.0526 218.084 50.4708C218.194 49.3677 217.431 48.5955 216.332 48.5955H207.8C207.43 48.5823 207.067 48.6953 206.768 48.9163C206.47 49.1373 206.255 49.4532 206.157 49.8128C205.062 53.3388 199.918 58.6298 191.488 58.6298C183.062 58.6298 175.176 52.4563 175.289 43.6355L175.399 33.8258C175.508 26.4389 183.171 21.3686 191.488 21.3686C199.045 21.3686 206.376 25.6707 207.139 32.7266C207.168 33.1208 207.053 33.5121 206.815 33.8265C206.577 34.1408 206.233 34.3565 205.848 34.4325L181.305 39.231C180.808 39.3429 180.364 39.622 180.045 40.0223C179.727 40.4226 179.553 40.9202 179.553 41.4332V41.5435C179.553 42.5324 180.539 43.4149 181.959 43.4149H217.212C217.675 43.4138 218.12 43.2279 218.447 42.8979C218.775 42.5679 218.959 42.1206 218.961 41.6538V34.7082C218.961 21.5892 207.687 11.1177 191.484 11.1177L191.488 11.1137ZM252.567 11.1137C238.883 11.1137 227.062 19.1624 227.062 29.7443C227.062 30.6268 227.832 31.2847 228.814 31.2847H237.678C238.555 31.2847 239.212 30.6268 239.321 29.7443C240.198 24.8907 245.999 21.3647 252.238 21.3647C259.679 21.3647 264.717 25.9938 264.717 33.9321V43.5252C264.717 53.3349 257.492 58.2988 248.518 58.2988C241.516 58.2988 237.459 55.6514 237.459 51.3532C237.459 47.6106 239.431 44.4116 247.532 42.5363L259.244 39.3413C260.449 39.0103 260.887 38.0136 260.668 36.9145C260.559 36.032 259.573 35.5947 258.697 35.5947H246.547C236.259 35.5947 225.857 42.2054 225.857 51.9087V53.4531C225.857 63.377 235.167 68.5577 245.78 68.5577C252.567 68.5577 258.368 65.9102 261.983 62.8255L267.35 58.1925C268.226 57.4203 269.098 57.4203 269.865 58.1925C270.518 58.8543 270.299 59.8471 269.755 60.6153L266.469 65.796C265.922 66.5721 266.36 67.5609 267.35 67.5609H275.232C275.462 67.563 275.691 67.5188 275.904 67.4308C276.118 67.3428 276.311 67.2128 276.474 67.0484C276.637 66.8841 276.766 66.6886 276.853 66.4736C276.94 66.2585 276.983 66.0282 276.98 65.796V32.3996C276.98 19.6155 267.897 11.1216 252.571 11.1216L252.567 11.1177V11.1137ZM324.262 12.4375H312.003C307.739 12.4375 303.577 15.0849 300.619 17.6181L295.804 21.8059C295.256 22.2511 294.271 22.5781 293.613 22.0226C292.843 21.475 292.518 20.3679 293.175 19.4855L296.676 14.1945C297.224 13.4224 296.786 12.4335 295.8 12.4335H287.585C287.355 12.4314 287.127 12.4755 286.914 12.5633C286.701 12.651 286.507 12.7807 286.344 12.9446C286.181 13.1086 286.053 13.3035 285.966 13.5181C285.878 13.7327 285.835 13.9627 285.837 14.1945V65.7881C285.837 66.7809 286.607 67.5531 287.589 67.5531H296.567C296.798 67.5557 297.027 67.5118 297.241 67.4241C297.454 67.3363 297.649 67.2064 297.812 67.042C297.975 66.8776 298.104 66.6819 298.191 66.4666C298.278 66.2513 298.322 66.0206 298.319 65.7881V39.3334C298.319 27.9793 302.916 22.9051 312.879 22.9051H324.262C324.493 22.9077 324.722 22.864 324.935 22.7765C325.149 22.689 325.343 22.5594 325.506 22.3954C325.669 22.2314 325.798 22.0362 325.886 21.8214C325.973 21.6065 326.017 21.3762 326.015 21.1441V14.1985C326.017 13.9663 325.973 13.736 325.886 13.5212C325.798 13.3063 325.669 13.1111 325.506 12.9471C325.343 12.7831 325.149 12.6536 324.935 12.5661C324.722 12.4785 324.493 12.4348 324.262 12.4375ZM71.1255 0.00788338C68.1838 0.00788338 65.4534 1.5404 63.9121 4.06571L47.3104 28.8933C47.067 29.2504 46.9617 29.6848 47.0145 30.1146C47.0673 30.5444 47.2745 30.9399 47.597 31.2264C47.9195 31.5129 48.335 31.6706 48.7651 31.6697C49.1951 31.6689 49.61 31.5095 49.9313 31.2217L66.2709 16.9483C66.3665 16.8618 66.4851 16.8051 66.6121 16.7854C66.7392 16.7656 66.8692 16.7836 66.9863 16.8371C67.1033 16.8906 67.2024 16.9773 67.2712 17.0867C67.3401 17.196 67.3758 17.3232 67.374 17.4526V62.1479C67.3746 62.2358 67.3577 62.3229 67.3244 62.4042C67.2911 62.4855 67.2421 62.5593 67.1802 62.6212C67.1183 62.6832 67.0447 62.7322 66.9639 62.7652C66.883 62.7982 66.7963 62.8147 66.709 62.8137C66.6122 62.8147 66.5163 62.794 66.4283 62.7531C66.3404 62.7123 66.2626 62.6522 66.2005 62.5773L16.8139 3.02171C16.0203 2.07538 15.0314 1.31476 13.9159 0.792884C12.8005 0.271005 11.5855 0.000420425 10.3555 9.11189e-07H8.62653C7.51472 -0.000516876 6.41372 0.219647 5.38645 0.647904C4.35918 1.07616 3.42578 1.70412 2.63962 2.49587C1.85345 3.28763 1.22993 4.22767 0.804702 5.26225C0.37947 6.29683 0.160864 7.40567 0.161378 8.52539V71.4809C0.16188 73.3373 0.764304 75.1427 1.87705 76.6227C2.98979 78.1027 4.55197 79.1762 6.32607 79.6801C8.10016 80.184 9.9891 80.0906 11.7057 79.4142C13.4222 78.7378 14.8725 77.5153 15.836 75.9327L32.4377 51.1129C32.6847 50.7561 32.7929 50.3202 32.7415 49.8883C32.6902 49.4564 32.4829 49.0585 32.1593 48.7705C31.8356 48.4825 31.418 48.3243 30.9861 48.3262C30.5542 48.3281 30.138 48.4898 29.8168 48.7807L13.4733 63.05C13.3776 63.1354 13.2593 63.1909 13.1329 63.2099C13.0065 63.229 12.8774 63.2107 12.7611 63.1574C12.6448 63.104 12.5463 63.0178 12.4776 62.9093C12.4089 62.8007 12.3729 62.6745 12.374 62.5458V17.8426C12.374 17.4723 12.6713 17.1808 13.039 17.1808C13.2346 17.1808 13.4185 17.2675 13.5437 17.4172L62.9381 76.9846C63.7339 77.9276 64.7236 78.6855 65.8386 79.2058C66.9537 79.7261 68.1675 79.9966 69.3965 79.9984H71.1255C73.3689 79.9984 75.5207 79.1019 77.1085 77.5058C78.6963 75.9096 79.5904 73.7442 79.5945 71.4848V8.52539C79.5945 7.406 79.3756 6.29759 78.9501 5.26346C78.5246 4.22934 77.901 3.28976 77.1149 2.49842C76.3288 1.70708 75.3956 1.07948 74.3686 0.651466C73.3415 0.223455 72.2409 0.00342088 71.1294 0.00393839L71.1255 0.00788338Z" fill="white"/>
</svg>
