<svg width="64" height="16" viewBox="0 0 64 16" fill="none" xmlns="http://www.w3.org/2000/svg">
<g id="BitUnit">
<path d="M7.24408 15.2368H0V0.609649H7.05062C8.32603 0.609649 9.32201 0.967836 10.0385 1.68421C10.7694 2.38596 11.1348 3.27047 11.1348 4.33772C11.1348 5.21491 10.8912 5.96053 10.404 6.57456C9.93105 7.17398 9.3435 7.54678 8.6413 7.69298C9.41515 7.80994 10.0672 8.2193 10.5974 8.92105C11.142 9.60819 11.4143 10.3977 11.4143 11.2895C11.4143 12.4591 11.0417 13.4094 10.2965 14.1404C9.56562 14.8713 8.54816 15.2368 7.24408 15.2368ZM6.53472 6.66228C7.16526 6.66228 7.65966 6.48684 8.01793 6.13596C8.37619 5.78509 8.55532 5.33187 8.55532 4.77632C8.55532 4.20614 8.37619 3.74561 8.01793 3.39474C7.65966 3.04386 7.16526 2.86842 6.53472 2.86842H2.51501V6.66228H6.53472ZM6.6422 12.9781C7.33006 12.9781 7.86746 12.8026 8.25438 12.4518C8.6413 12.0863 8.83477 11.5819 8.83477 10.9386C8.83477 10.3684 8.6413 9.89328 8.25438 9.51316C7.86746 9.11842 7.33006 8.92105 6.6422 8.92105H2.51501V12.9781H6.6422Z" fill="white"/>
<path d="M14.992 3.35088C14.6194 3.35088 14.2898 3.21199 14.0032 2.93421C13.7309 2.65643 13.5947 2.32018 13.5947 1.92544C13.5947 1.5307 13.7309 1.19445 14.0032 0.916666C14.2898 0.638889 14.6194 0.5 14.992 0.5C15.3789 0.5 15.7085 0.638889 15.9808 0.916666C16.2531 1.19445 16.3892 1.5307 16.3892 1.92544C16.3892 2.32018 16.2531 2.65643 15.9808 2.93421C15.7085 3.21199 15.3789 3.35088 14.992 3.35088ZM16.1312 15.2368H13.8742V4.64474H16.1312V15.2368Z" fill="white"/>
<path d="M22.1761 15.5C21.3019 15.5 20.6356 15.2661 20.177 14.7982C19.7327 14.3304 19.5106 13.6579 19.5106 12.7807V6.66228H17.791V4.64474H19.5106V1.75H21.7677V4.64474H23.8743V6.66228H21.7677V12.2105C21.7677 12.5906 21.8537 12.8977 22.0256 13.1316C22.1976 13.3509 22.4412 13.4605 22.7565 13.4605C23.2151 13.4605 23.5518 13.3363 23.7668 13.0877L24.3042 14.8202C23.8313 15.2734 23.1219 15.5 22.1761 15.5Z" fill="white"/>
<path d="M32.2003 15.5C30.1654 15.5 28.6177 14.9591 27.5573 13.8772C26.5111 12.7953 25.9881 11.326 25.9881 9.4693V0.609649H28.5246V9.38158C28.5246 10.5658 28.8398 11.5015 29.4704 12.1886C30.1153 12.8757 31.0252 13.2193 32.2003 13.2193C33.3755 13.2193 34.2783 12.8757 34.9088 12.1886C35.5394 11.5015 35.8546 10.5658 35.8546 9.38158V0.609649H38.3911V9.44737C38.3911 11.3187 37.8609 12.7953 36.8004 13.8772C35.7543 14.9591 34.221 15.5 32.2003 15.5Z" fill="white"/>
<path d="M50.6384 15.2368H48.3813V8.61403C48.3813 7.15205 47.6863 6.42105 46.2962 6.42105C45.7517 6.42105 45.2429 6.55994 44.77 6.83772C44.2971 7.1155 43.9173 7.45175 43.6307 7.84649V15.2368H41.3737V4.64474H43.6307V6.0921C44.0177 5.62427 44.5336 5.22222 45.1784 4.88596C45.8233 4.54971 46.5255 4.38158 47.285 4.38158C48.3885 4.38158 49.2196 4.67398 49.7785 5.25877C50.3517 5.84357 50.6384 6.68421 50.6384 7.7807V15.2368Z" fill="white"/>
<path d="M54.6878 3.35088C54.3152 3.35088 53.9856 3.21199 53.699 2.93421C53.4267 2.65643 53.2906 2.32018 53.2906 1.92544C53.2906 1.5307 53.4267 1.19445 53.699 0.916666C53.9856 0.638889 54.3152 0.5 54.6878 0.5C55.0747 0.5 55.4043 0.638889 55.6766 0.916666C55.9489 1.19445 56.085 1.5307 56.085 1.92544C56.085 2.32018 55.9489 2.65643 55.6766 2.93421C55.4043 3.21199 55.0747 3.35088 54.6878 3.35088ZM55.8271 15.2368H53.57V4.64474H55.8271V15.2368Z" fill="white"/>
<path d="M61.8719 15.5C60.9978 15.5 60.3314 15.2661 59.8728 14.7982C59.4286 14.3304 59.2064 13.6579 59.2064 12.7807V6.66228H57.4868V4.64474H59.2064V1.75H61.4635V4.64474H63.5701V6.66228H61.4635V12.2105C61.4635 12.5906 61.5495 12.8977 61.7215 13.1316C61.8934 13.3509 62.137 13.4605 62.4523 13.4605C62.9109 13.4605 63.2477 13.3363 63.4626 13.0877L64 14.8202C63.5271 15.2734 62.8177 15.5 61.8719 15.5Z" fill="white"/>
</g>
</svg>
