<svg width="13" height="13" viewBox="0 0 13 13" fill="none" xmlns="http://www.w3.org/2000/svg">
<g id="Icon">
<path id="Mask" fill-rule="evenodd" clip-rule="evenodd" d="M8.87347 7.58333H4.74705L3.86035 4.33333H10.4985L8.87347 7.58333ZM11.4198 3.7635C11.2211 3.44175 10.8766 3.25 10.4985 3.25H3.56514L3.23093 2.02421C3.16647 1.78858 2.95251 1.625 2.70822 1.625H1.62489C1.32535 1.625 1.08322 1.86767 1.08322 2.16667C1.08322 2.46567 1.32535 2.70833 1.62489 2.70833H2.29439L3.81051 8.26746C3.87497 8.50308 4.08893 8.66667 4.33322 8.66667H9.20822C9.41351 8.66667 9.60093 8.55075 9.69301 8.36712L11.4675 4.81758C11.6371 4.47904 11.6186 4.08525 11.4198 3.7635ZM4.0625 9.75C3.614 9.75 3.25 10.1135 3.25 10.5625C3.25 11.0115 3.614 11.375 4.0625 11.375C4.511 11.375 4.875 11.0115 4.875 10.5625C4.875 10.1135 4.511 9.75 4.0625 9.75ZM8.66666 10.5625C8.66666 10.1135 9.03066 9.75 9.47916 9.75C9.92766 9.75 10.2917 10.1135 10.2917 10.5625C10.2917 11.0115 9.92766 11.375 9.47916 11.375C9.03066 11.375 8.66666 11.0115 8.66666 10.5625Z" fill="white"/>
</g>
</svg>
