<svg width="13" height="13" viewBox="0 0 13 13" fill="none" xmlns="http://www.w3.org/2000/svg">
<g id="Icon">
<path id="Mask" fill-rule="evenodd" clip-rule="evenodd" d="M3.79167 8.66667C3.79167 8.36875 4.03542 8.125 4.33333 8.125C4.63125 8.125 4.875 8.36875 4.875 8.66667C4.875 8.96458 4.63125 9.20833 4.33333 9.20833C4.03542 9.20833 3.79167 8.96458 3.79167 8.66667ZM6.5 8.125H8.66667C8.96458 8.125 9.20833 8.36875 9.20833 8.66667C9.20833 8.96458 8.96458 9.20833 8.66667 9.20833H6.5C6.20208 9.20833 5.95833 8.96458 5.95833 8.66667C5.95833 8.36875 6.20208 8.125 6.5 8.125ZM9.75 10.2917H3.25C2.95154 10.2917 2.70833 10.049 2.70833 9.75V7.04167H10.2917V9.75C10.2917 10.049 10.0485 10.2917 9.75 10.2917ZM4.51858 3.00787C4.61067 2.82317 4.79646 2.70833 5.00283 2.70833H7.99717C8.20354 2.70833 8.38933 2.82317 8.48142 3.00787L9.95692 5.95833H3.04308L4.51858 3.00787ZM11.2607 6.14358L9.45046 2.52308C9.17367 1.9695 8.61683 1.625 7.99717 1.625H5.00283C4.38317 1.625 3.82633 1.9695 3.54954 2.52308L1.73929 6.14358C1.66454 6.29308 1.625 6.461 1.625 6.62783V9.75C1.625 10.6459 2.35408 11.375 3.25 11.375H9.75C10.6459 11.375 11.375 10.6459 11.375 9.75V6.62783C11.375 6.461 11.3355 6.29308 11.2607 6.14358Z" fill="white"/>
</g>
</svg>
