<svg width="13" height="13" viewBox="0 0 13 13" fill="none" xmlns="http://www.w3.org/2000/svg">
<g id="Icon">
<path id="Mask" fill-rule="evenodd" clip-rule="evenodd" d="M6.50001 8.12516C5.60409 8.12516 4.87501 7.39608 4.87501 6.50016C4.87501 5.60425 5.60409 4.87516 6.50001 4.87516C7.39593 4.87516 8.12501 5.60425 8.12501 6.50016C8.12501 7.39608 7.39593 8.12516 6.50001 8.12516ZM6.50001 3.79183C5.00663 3.79183 3.79168 5.00679 3.79168 6.50016C3.79168 7.99354 5.00663 9.2085 6.50001 9.2085C7.99338 9.2085 9.20834 7.99354 9.20834 6.50016C9.20834 5.00679 7.99338 3.79183 6.50001 3.79183ZM6.50001 10.8335C4.11072 10.8335 2.16668 8.88945 2.16668 6.50016C2.16668 4.11087 4.11072 2.16683 6.50001 2.16683C8.8893 2.16683 10.8333 4.11087 10.8333 6.50016C10.8333 8.88945 8.8893 10.8335 6.50001 10.8335ZM6.50001 1.0835C3.51326 1.0835 1.08334 3.51341 1.08334 6.50016C1.08334 9.48691 3.51326 11.9168 6.50001 11.9168C9.48676 11.9168 11.9167 9.48691 11.9167 6.50016C11.9167 3.51341 9.48676 1.0835 6.50001 1.0835Z" fill="white"/>
</g>
</svg>
